<svg width="100" height="28" viewBox="0 0 100 28" fill="none" xmlns="http://www.w3.org/2000/svg">
<g clip-path="url(#clip0_123_682)">
<path d="M10.902 0.171875H0V26.2442L10.902 0.171875Z" fill="#FA0C00"/>
<path d="M18.5723 0.171875H29.4601V26.2442L18.5723 0.171875Z" fill="#FA0C00"/>
<path d="M14.7373 9.78125L21.6763 26.2442H17.1237L15.0498 21.0028H9.97168L14.7373 9.78125Z" fill="#FA0C00"/>
<path d="M47.2466 16.7522L48.5322 20.4383C48.5747 20.5306 48.6387 20.5732 48.7524 20.5732H51.2238C51.3589 20.5732 51.3802 20.5092 51.3589 20.3743L46.2524 6.1911C46.2309 6.07746 46.2097 6.05615 46.096 6.05615H43.0278C42.9427 6.05615 42.8929 6.12006 42.8929 6.21241C42.8504 6.95813 42.7864 7.18541 42.694 7.40559L38.1415 20.353C38.1202 20.5092 38.17 20.5732 38.2978 20.5732H40.5066C40.6415 20.5732 40.7055 20.5306 40.7551 20.3956L41.9697 16.7522H47.2466ZM42.6727 14.3445C43.3404 12.3275 44.2211 9.74223 44.5762 8.26495H44.5975C45.0378 9.81324 46.0747 12.8814 46.5435 14.3445H42.6727Z" fill="#FA0C00"/>
<path d="M57.9235 20.7935C59.2517 20.7935 60.6649 20.5521 62.0997 19.9341C62.2133 19.8915 62.2346 19.8419 62.2346 19.7353C62.192 19.3375 62.1422 18.7622 62.1422 18.3219V4.96963C62.1422 4.88441 62.1422 4.8418 62.0357 4.8418H59.628C59.5357 4.8418 59.4931 4.88441 59.4931 4.99805V9.5222C59.1167 9.47958 58.8538 9.45827 58.5415 9.45827C54.6564 9.45827 52.27 12.0222 52.27 15.2253C52.27 18.9399 54.7204 20.7935 57.9235 20.7935ZM59.4931 18.3219C59.0953 18.4497 58.6551 18.4995 58.2077 18.4995C56.4462 18.4995 55.0044 17.5051 55.0044 15.0904C55.0044 12.9526 56.4887 11.6884 58.4562 11.6884C58.8538 11.6884 59.2018 11.731 59.4931 11.8446V18.3219Z" fill="#FA0C00"/>
<path d="M69.9157 9.45801C66.5989 9.45801 64.5464 12.0006 64.5464 15.1398C64.5464 17.9452 66.1798 20.7932 69.866 20.7932C72.9838 20.7932 75.1713 18.4992 75.1713 15.0688C75.1713 12.0432 73.3177 9.45801 69.9157 9.45801ZM69.7807 11.6881C71.6557 11.6881 72.4511 13.3003 72.4511 15.1398C72.4511 17.4126 71.2793 18.5418 69.9157 18.5418C68.2324 18.5418 67.2382 17.1285 67.2382 15.0901C67.2382 12.9949 68.2964 11.6881 69.7807 11.6881Z" fill="#FA0C00"/>
<path d="M77.6608 4.8418C77.5684 4.8418 77.5044 4.88441 77.5044 4.99805V20.1117C77.5044 20.1757 77.5684 20.2893 77.6608 20.3106C78.7189 20.6373 79.8269 20.7935 80.9704 20.7935C84.2446 20.7935 87.4264 18.7622 87.4264 14.6713C87.4264 11.7097 85.3951 9.45827 82.2133 9.45827C81.4817 9.45827 80.7999 9.57191 80.2033 9.77078L80.1749 5.01936C80.1749 4.86311 80.1324 4.8418 79.976 4.8418H77.6608ZM84.7062 14.9412C84.7062 17.3915 83.03 18.5421 81.2189 18.5421C80.8426 18.5421 80.5088 18.5208 80.2033 18.4284V11.9796C80.5513 11.8446 80.9704 11.731 81.7446 11.731C83.4917 11.731 84.7062 12.839 84.7062 14.9412Z" fill="#FA0C00"/>
<path d="M96.4115 15.7364C97.491 15.7364 98.3788 15.7151 98.6842 15.6441C98.7979 15.6228 98.8404 15.5802 98.8617 15.4878C98.9257 15.2464 98.9541 14.7421 98.9541 14.1242C98.9541 12.0219 97.6899 9.45801 94.4228 9.45801C91.0848 9.45801 89.231 12.1782 89.231 15.2464C89.231 17.9665 90.6657 20.7932 94.6855 20.7932C96.1913 20.7932 97.1642 20.5518 98.0024 20.154C98.0875 20.1114 98.1302 20.0403 98.1302 19.9125V18.0731C98.1302 17.9665 98.0662 17.9452 98.0024 17.9878C97.1642 18.343 96.2551 18.5205 95.261 18.5205C93.0095 18.5205 91.9868 17.2776 91.9228 15.7364H96.4115ZM91.9228 13.833C92.1004 12.7535 92.7822 11.5816 94.3091 11.5816C95.9924 11.5816 96.4328 12.9949 96.4328 13.6342C96.4328 13.6554 96.4328 13.7478 96.4328 13.8117C96.3404 13.833 96.0564 13.833 95.2182 13.833H91.9228Z" fill="#FA0C00"/>
</g>
<defs>
<clipPath id="clip0_123_682">
<rect width="100" height="27.2727" fill="white" transform="translate(0 0.171875)"/>
</clipPath>
</defs>
</svg>
