<svg width="100" height="14" viewBox="0 0 100 14" fill="none" xmlns="http://www.w3.org/2000/svg">
<g clip-path="url(#clip0_123_683)">
<path d="M3.631 6.17291C3.59462 6.12531 3.54659 6.08792 3.49154 6.06432C3.43647 6.0407 3.37627 6.03171 3.3167 6.03816C3.25715 6.04464 3.20028 6.06636 3.15158 6.10124C3.10287 6.13612 3.064 6.18297 3.03869 6.23726L0.0373764 12.238C0.0100349 12.2927 -0.00287429 12.3535 -0.000125543 12.4146C0.00262322 12.4756 0.0209387 12.535 0.0530821 12.587C0.0852252 12.639 0.13013 12.682 0.183531 12.7117C0.236932 12.7415 0.297059 12.7572 0.358202 12.7572H4.53737C4.60432 12.7587 4.67026 12.7408 4.72721 12.7056C4.78417 12.6704 4.82966 12.6194 4.8582 12.5588C5.7597 10.696 5.21336 7.86353 3.631 6.17291Z" fill="url(#paint0_linear_123_683)"/>
<path d="M5.83219 0.714966C5.08435 1.86565 4.64853 3.19101 4.56752 4.56097C4.4865 5.93093 4.76307 7.29842 5.37009 8.52923L7.38491 12.5589C7.4147 12.6185 7.4605 12.6686 7.51716 12.7036C7.57382 12.7386 7.63911 12.7572 7.70573 12.7572H11.8842C11.9453 12.7572 12.0054 12.7415 12.0588 12.7118C12.1122 12.682 12.1571 12.6391 12.1893 12.587C12.2214 12.535 12.2397 12.4757 12.2425 12.4146C12.2452 12.3535 12.2323 12.2927 12.205 12.238C12.205 12.238 6.58359 0.993953 6.44232 0.712715C6.41438 0.655468 6.37089 0.607254 6.3168 0.573603C6.26271 0.539953 6.20026 0.522228 6.13654 0.522463C6.07284 0.522698 6.01052 0.540883 5.95667 0.574932C5.90284 0.608981 5.85969 0.657515 5.83219 0.714966Z" fill="#2684FF"/>
<path d="M54.8428 5.5266C54.8428 7.01253 55.5321 8.19227 58.2284 8.7131C59.837 9.05081 60.174 9.31047 60.174 9.84668C60.174 10.3675 59.8363 10.7047 58.7033 10.7047C57.3338 10.68 55.9918 10.3169 54.7969 9.64762V12.0679C55.6089 12.4662 56.6811 12.9105 58.6727 12.9105C61.4914 12.9105 62.6098 11.6534 62.6098 9.78533L54.8428 5.5266ZM62.6098 9.78533C62.6098 8.0236 61.6753 7.19621 59.0404 6.62961C57.5851 6.30784 57.2327 5.98627 57.2327 5.5266C57.2327 4.94499 57.7535 4.6994 58.7186 4.6994C59.883 4.6994 61.032 5.05175 62.1196 5.54199V3.22867C61.0766 2.754 59.9408 2.51848 58.7952 2.53936C56.1909 2.53936 54.8428 3.67295 54.8428 5.5266" fill="#0052CC"/>
<path d="M91.0566 2.69238V12.7573H93.2013V5.08225L94.1052 7.11959L97.1384 12.7573H99.8347V2.69238H97.69V9.18788L96.878 7.30345L94.4422 2.69238H91.0566Z" fill="#0052CC"/>
<path d="M77.4157 2.69238H75.0718V12.7573H77.4157V2.69238Z" fill="#0052CC"/>
<path d="M72.3671 9.78533C72.3671 8.0236 71.4326 7.19621 68.7977 6.62961C67.3424 6.30784 66.99 5.98627 66.99 5.5266C66.99 4.94499 67.5109 4.6994 68.476 4.6994C69.6403 4.6994 70.7893 5.05175 71.8769 5.54199V3.22867C70.8341 2.754 69.6983 2.51848 68.5525 2.53936C65.9482 2.53936 64.6002 3.67295 64.6002 5.5266C64.6002 7.01253 65.2895 8.19227 67.9857 8.7131C69.5943 9.05081 69.9313 9.31047 69.9313 9.84668C69.9313 10.3675 69.5936 10.7047 68.4606 10.7047C67.0912 10.68 65.7491 10.3169 64.5542 9.64762V12.0679C65.3662 12.4662 66.4384 12.9105 68.43 12.9105C71.2488 12.9105 72.3671 11.6534 72.3671 9.78533Z" fill="#0052CC"/>
<path d="M36.6348 2.69238V12.7573H41.4524L42.2109 10.5819H38.9939V2.69238H36.6348Z" fill="#0052CC"/>
<path d="M27.1167 2.69238V4.86762H29.721V12.7573H32.0801V4.86762H34.8683V2.69238H27.1167Z" fill="#0052CC"/>
<path d="M23.6957 2.69238H20.604L17.0942 12.7573H19.7745L20.2721 11.0622C21.4974 11.422 22.8006 11.422 24.0259 11.0622L24.5235 12.7573H27.2044L23.6957 2.69238ZM22.1498 9.24717C21.7132 9.24715 21.2789 9.18465 20.8599 9.06161L22.1498 4.66931L23.4396 9.06311C23.0207 9.18565 22.5864 9.24764 22.1498 9.24717Z" fill="#0052CC"/>
<path d="M49.7581 2.69238H46.6665L43.1567 12.7573H45.8376L46.3352 11.0622C47.5607 11.422 48.8637 11.422 50.089 11.0622L50.5866 12.7573H53.2674L49.7581 2.69238ZM48.2123 9.24717C47.7757 9.24715 47.3414 9.18465 46.9224 9.06161L48.2123 4.66931L49.5021 9.06311C49.0832 9.18565 48.6489 9.24764 48.2123 9.24717Z" fill="#0052CC"/>
<path d="M85.8616 2.69238H82.77L79.2603 12.7573H81.9411L82.4387 11.0622C83.664 11.422 84.9672 11.422 86.1925 11.0622L86.6901 12.7573H89.3711L85.8616 2.69238ZM84.3148 9.24717C83.8783 9.24715 83.4439 9.18465 83.025 9.06161L84.3148 4.66931L85.6047 9.06311C85.1858 9.18565 84.7514 9.24764 84.3148 9.24717Z" fill="#0052CC"/>
</g>
<defs>
<linearGradient id="paint0_linear_123_683" x1="5.27584" y1="7.09899" x2="2.10848" y2="12.5851" gradientUnits="userSpaceOnUse">
<stop stop-color="#0052CC"/>
<stop offset="0.923" stop-color="#2684FF"/>
</linearGradient>
<clipPath id="clip0_123_683">
<rect width="100" height="12.5704" fill="white" transform="translate(0 0.522949)"/>
</clipPath>
</defs>
</svg>
