<svg width="100" height="36" viewBox="0 0 100 36" fill="none" xmlns="http://www.w3.org/2000/svg">
<g clip-path="url(#clip0_123_684)">
<path d="M0.712402 0V27.6164L4.27405 27.6301V14.4795H12.8357V11H4.26035V3.46575H15.4247V0H0.712402ZM21.8083 5.61644C22.4259 5.61644 23.0183 5.37108 23.455 4.93436C23.8917 4.49763 24.137 3.9053 24.137 3.28767C24.137 2.67004 23.8917 2.07771 23.455 1.64099C23.0183 1.20426 22.4259 0.958904 21.8083 0.958904C21.1907 0.958904 20.5983 1.20426 20.1616 1.64099C19.7248 2.07771 19.4795 2.67004 19.4795 3.28767C19.4795 3.9053 19.7248 4.49763 20.1616 4.93436C20.5983 5.37108 21.1907 5.61644 21.8083 5.61644ZM20.0137 9.08219V27.6301H23.5754V9.08219H20.0137Z" fill="white"/>
<path fill-rule="evenodd" clip-rule="evenodd" d="M36.7397 8.54785C32.0274 8.54785 28.7397 12.5342 28.7397 17.2739C28.7397 22.0136 32.0274 25.9999 36.7397 25.9999C38.9041 25.9999 40.685 25.178 41.9863 23.8081V26.2739C41.9954 27.0106 41.8582 27.7418 41.583 28.4254C41.3077 29.1088 40.8997 29.7309 40.3825 30.2557C39.8654 30.7806 39.2493 31.1976 38.57 31.4829C37.8906 31.7681 37.1615 31.9159 36.4247 31.9177C35.2877 31.9177 34.1644 31.4794 33.274 30.8492L31.4932 33.9314C32.8702 34.8216 34.4619 35.3235 36.1004 35.3843C37.7389 35.4451 39.3634 35.0625 40.8028 34.277C42.2419 33.4916 43.4425 32.3321 44.2777 30.921C45.1128 29.5101 45.5517 27.8998 45.548 26.2602V9.0958H41.9863V10.7533C40.685 9.38347 38.9041 8.56155 36.7397 8.56155V8.54785ZM32.2877 17.2739C32.2877 14.3287 34.5343 12.0136 37.137 12.0136C39.7397 12.0136 41.9726 14.3424 41.9726 17.2739C41.9726 20.2191 39.726 22.5205 37.137 22.5205C34.5343 22.5205 32.2877 20.2191 32.2877 17.2739Z" fill="white"/>
<path d="M58.3425 12.0139C57.3239 12.0319 56.3532 12.4501 55.6406 13.1782C54.9279 13.9061 54.5305 14.8854 54.5343 15.9043V27.6304H50.9727V9.08236H54.5343V10.781C55.0672 10.0747 55.7592 9.50439 56.5544 9.11636C57.3495 8.72834 58.225 8.53364 59.1096 8.54812C61.6028 8.54812 63.5206 9.78099 64.6165 11.6714C65.2279 10.7237 66.0646 9.9424 67.052 9.39735C68.0392 8.85229 69.1462 8.56051 70.274 8.54812C74.3151 8.54812 76.8494 11.8084 76.8494 15.8496V27.6304H73.3151V15.8906C73.3188 14.8717 72.9214 13.8924 72.2087 13.1644C71.4961 12.4364 70.5255 12.0182 69.5069 12.0002C68.4883 12.0182 67.5176 12.4364 66.805 13.1644C66.0922 13.8924 65.6948 14.8717 65.6987 15.8906V27.6167H62.137V15.8906C62.1409 14.8741 61.7453 13.8968 61.0355 13.1692C60.3258 12.4415 59.3587 12.0217 58.3425 12.0002V12.0139Z" fill="white"/>
<path fill-rule="evenodd" clip-rule="evenodd" d="M95.7945 11.1914C94.9858 10.3481 94.0134 9.67862 92.937 9.22402C91.8606 8.76943 90.7028 8.53925 89.5343 8.54758C84.2466 8.54758 80.4932 13.0133 80.4932 18.3558C80.4932 23.6983 84.2466 28.164 89.5343 28.164C90.7023 28.1699 91.8595 27.9387 92.9356 27.4843C94.0117 27.0298 94.9843 26.3615 95.7945 25.5202V27.6298H99.3425V9.08183H95.7808V11.1914H95.7945ZM84.0411 18.3558C84.0411 14.8215 86.7534 12.0133 89.9178 12.0133C93.0685 12.0133 95.7945 14.8215 95.7945 18.3558C95.7945 21.89 93.0822 24.6846 89.9178 24.6846C86.7671 24.6846 84.0411 21.89 84.0411 18.3558Z" fill="white"/>
</g>
<defs>
<clipPath id="clip0_123_684">
<rect width="100" height="35.6164" fill="white"/>
</clipPath>
</defs>
</svg>
