<svg width="100" height="28" viewBox="0 0 100 28" fill="none" xmlns="http://www.w3.org/2000/svg">
<g clip-path="url(#clip0_123_685)">
<path d="M0 9.12314H8.96987L18.146 18.2872H8.96987V27.4512L0 18.2872V9.12314ZM0 0.165039H18.146V9.12314H8.96987L0 0.165039Z" fill="white"/>
<path d="M35.2168 19.5207V5.94482H43.5504V8.68064H38.3547V12.2424H43.5504V14.9266H38.3547V19.5207H35.2168Z" fill="white"/>
<path d="M45.4321 19.521V10.1828H48.5556V12.2864C48.6068 11.6194 48.914 11.055 49.3749 10.5932C49.8357 10.1828 50.4503 9.97754 51.0647 9.97754C51.4743 9.97754 51.6792 10.1828 51.8839 10.1828V12.9021H51.0647C50.3478 12.7995 49.6309 13.1587 49.17 13.7231C48.7604 14.1336 48.5556 14.9545 48.5556 15.9807V19.521H45.4321Z" fill="white"/>
<path d="M57.7336 17.4632C58.3993 17.5657 59.065 17.2068 59.3723 16.6428C59.7821 16.1813 59.9869 15.6175 59.9869 15.0021C59.9869 14.3356 59.7821 13.6691 59.3723 13.1564C58.9626 12.6949 58.348 12.4899 57.7336 12.5411C57.119 12.5411 56.5043 12.7462 56.0434 13.1564C55.6337 13.6691 55.3777 14.3356 55.4288 15.0021C55.4288 15.6175 55.6337 16.2327 56.0434 16.6428C56.4532 17.1555 57.0678 17.4632 57.7336 17.4632ZM56.9141 19.9243C55.6337 19.9243 54.4558 19.4116 53.5852 18.4886C52.8682 17.4632 52.5097 16.2327 52.561 14.9509C52.561 14.1305 52.7145 13.2589 52.9707 12.4899C53.3291 11.7208 53.9437 11.1055 54.6095 10.5928C55.2753 10.1826 56.0946 9.97754 56.9141 9.97754C57.5287 10.0288 58.1945 10.1314 58.7577 10.3877C59.2698 10.6441 59.6284 11.1055 59.7821 11.6182V10.1314H62.906V19.4627H59.7821V18.2322C59.526 18.6937 59.1675 19.1039 58.7577 19.4627C58.1945 19.7704 57.5799 19.8729 56.9141 19.9243Z" fill="white"/>
<path d="M65.3252 19.5518V10.1328H68.254V11.6336C68.4594 11.0126 68.8705 10.8056 69.2815 10.3916C69.7954 10.1328 70.3606 10.0293 70.9771 9.97754C72.4158 9.97754 73.4947 10.5986 73.9057 11.6854C74.3168 11.2714 74.7278 10.8573 75.1389 10.4433C75.7554 10.1846 76.3721 10.081 77.0399 10.0293C79.3007 10.0293 80.3796 11.2714 80.3796 13.8073V19.6554H77.451V14.3248C77.451 13.8073 77.2969 13.2898 77.0399 12.8757C76.7317 12.6169 76.372 12.4617 75.961 12.4617C75.4472 12.4099 74.9848 12.6687 74.7279 13.0827C74.4196 13.6003 74.2655 14.1696 74.3168 14.7388V19.5518H71.3882V14.3248C71.3882 13.8073 71.234 13.2898 70.9771 12.8757C70.7202 12.6169 70.3091 12.4617 69.9495 12.4617C69.4871 12.5135 69.0246 12.7205 68.7163 13.0827C68.4081 13.6003 68.254 14.1696 68.3053 14.7388V19.5518H65.3252Z" fill="white"/>
<path d="M84.8717 13.8983H88.8833C88.8833 13.3789 88.7271 12.8594 88.4666 12.4439C88.0498 12.0283 87.633 12.0283 87.0078 12.0283C86.4346 12.0283 85.8616 12.1842 85.3405 12.4439C85.028 12.8594 84.8717 13.3789 84.8717 13.8983ZM91.801 14.3139V15.7683H84.8196C84.8196 16.3396 85.028 16.8591 85.4448 17.2228C85.8616 17.5345 86.3826 17.6902 86.9035 17.6383C87.9455 17.6383 88.3624 17.4305 88.7792 16.8072H91.7489C91.5405 17.7942 90.9153 18.6252 90.0817 19.0927C89.0917 19.6122 87.9976 19.9239 86.9035 19.9239C85.2364 19.9239 83.9339 19.5084 83.1003 18.4694C82.1625 17.5345 81.5894 16.2358 81.5894 14.8853C81.5894 13.4828 82.1104 12.1322 83.1003 11.0933C83.9339 10.2622 85.1843 9.84669 86.9035 9.84669C88.206 9.79474 89.5085 10.2622 90.4985 11.0933C91.3842 11.9764 91.8531 13.1192 91.801 14.3139Z" fill="white"/>
<path d="M93.418 19.521V10.1828H96.36V12.2864C96.5663 11.6707 96.9277 11.1063 97.3923 10.5932C97.8568 10.1828 98.4246 9.97754 99.0439 9.97754C99.2504 9.97754 99.6634 10.1828 99.8697 10.1828V12.9021H98.8374C98.1665 12.8508 97.5472 13.21 97.1858 13.7231C96.5665 14.1336 96.36 14.9545 96.36 15.9807V19.521H93.418Z" fill="white"/>
</g>
<defs>
<clipPath id="clip0_123_685">
<rect width="100" height="27.2861" fill="white" transform="translate(0 0.165039)"/>
</clipPath>
</defs>
</svg>
