<svg width="100" height="28" viewBox="0 0 100 28" fill="none" xmlns="http://www.w3.org/2000/svg">
<g clip-path="url(#clip0_123_686)">
<path d="M19.2383 11.809H10.8446C10.628 11.809 10.4524 11.9847 10.4524 12.2014V16.3051C10.4524 16.5216 10.628 16.6979 10.8446 16.6979H14.119V21.7965C14.119 21.7965 13.3836 22.0471 11.3511 22.0471C8.95301 22.0471 5.60306 21.1709 5.60306 13.8043C5.60306 6.43621 9.09128 5.46678 12.3663 5.46678C15.2011 5.46678 16.4224 5.96594 17.1995 6.20638C17.4436 6.28125 17.6695 6.03811 17.6695 5.82139L18.6058 1.85634C18.6058 1.75505 18.5715 1.63296 18.4559 1.54997C18.1403 1.32493 16.215 0.247559 11.3511 0.247559C5.74767 0.247559 0 2.6315 0 14.0916C0 25.5521 6.5806 27.2599 12.126 27.2599C16.7175 27.2599 19.503 25.2976 19.503 25.2976C19.6178 25.2342 19.6301 25.0738 19.6301 25.0003V12.2014C19.6301 11.9847 19.4547 11.809 19.2383 11.809Z" fill="#EEEEEE"/>
<path d="M62.4951 1.62062C62.4951 1.40224 62.322 1.22607 62.1054 1.22607H57.3794C57.1635 1.22607 56.9879 1.40224 56.9879 1.62062C56.9879 1.62166 56.9893 10.7538 56.9893 10.7538H49.6225V1.62062C49.6225 1.40224 49.4487 1.22607 49.2325 1.22607H44.5067C44.2916 1.22607 44.1162 1.40224 44.1162 1.62062V26.3508C44.1162 26.569 44.2916 26.7467 44.5067 26.7467H49.2325C49.4487 26.7467 49.6225 26.569 49.6225 26.3508V15.7729H56.9893C56.9893 15.7729 56.9763 26.35 56.9763 26.3508C56.9763 26.569 57.1517 26.7467 57.3678 26.7467H62.1051C62.3215 26.7467 62.4946 26.569 62.4951 26.3508V1.62062Z" fill="#EEEEEE"/>
<path d="M28.1562 4.86602C28.1562 3.16428 26.7918 1.78906 25.1086 1.78906C23.4271 1.78906 22.0615 3.16428 22.0615 4.86602C22.0615 6.56599 23.4271 7.94489 25.1086 7.94489C26.7918 7.94489 28.1562 6.56599 28.1562 4.86602Z" fill="#EEEEEE"/>
<path d="M27.8183 21.1342C27.8183 20.5006 27.8183 9.71865 27.8183 9.71865C27.8183 9.50188 27.6432 9.32471 27.4273 9.32471H22.7161C22.5 9.32471 22.3066 9.54762 22.3066 9.76431C22.3066 9.76431 22.3066 23.5009 22.3066 26.1194C22.3066 26.6001 22.6061 26.7429 22.9938 26.7429C22.9938 26.7429 25.0046 26.7429 27.2384 26.7429C27.704 26.7429 27.8183 26.5144 27.8183 26.1118C27.8183 25.2351 27.8183 21.8008 27.8183 21.1342Z" fill="#EEEEEE"/>
<path d="M80.4559 9.36182H75.7661C75.5509 9.36182 75.3759 9.53907 75.3759 9.75721V21.8832C75.3759 21.8832 74.1845 22.7549 72.4934 22.7549C70.8025 22.7549 70.3536 21.9877 70.3536 20.332C70.3536 18.6741 70.3536 9.75721 70.3536 9.75721C70.3536 9.53907 70.1789 9.36182 69.9636 9.36182H65.2038C64.989 9.36182 64.813 9.53907 64.813 9.75721C64.813 9.75721 64.813 16.2148 64.813 21.1326C64.813 26.0508 67.5541 27.2539 71.325 27.2539C74.4183 27.2539 76.9125 25.5449 76.9125 25.5449C76.9125 25.5449 77.0313 26.4454 77.0849 26.5523C77.1388 26.6588 77.2787 26.7664 77.43 26.7664L80.4581 26.7531C80.6729 26.7531 80.8488 26.5754 80.8488 26.3583L80.8474 9.75721C80.8474 9.53907 80.6721 9.36182 80.4559 9.36182Z" fill="#EEEEEE"/>
<path d="M91.4239 22.74C89.7971 22.6904 88.6938 21.9523 88.6938 21.9523V14.1208C88.6938 14.1208 89.7825 13.4536 91.1179 13.3343C92.8068 13.183 94.4341 13.6932 94.4341 17.7219C94.4341 21.9703 93.6996 22.8086 91.4239 22.74ZM93.2737 8.80631C90.6099 8.80631 88.7983 9.99475 88.7983 9.99475V1.62062C88.7983 1.40224 88.6237 1.22607 88.4083 1.22607H83.6688C83.4534 1.22607 83.2783 1.40224 83.2783 1.62062V26.3508C83.2783 26.569 83.4534 26.7467 83.6695 26.7467C83.6698 26.7467 86.9567 26.7467 86.9577 26.7467C87.1058 26.7467 87.2179 26.6703 87.3008 26.5367C87.3825 26.4037 87.5005 25.3964 87.5005 25.3964C87.5005 25.3964 89.4384 27.233 93.1071 27.233C97.4141 27.233 99.8841 25.0482 99.8841 17.4254C99.8841 9.80245 95.9392 8.80631 93.2737 8.80631Z" fill="#EEEEEE"/>
<path d="M41.4015 9.32238H37.8564C37.8564 9.32238 37.8511 4.6399 37.8511 4.63885C37.8511 4.46165 37.7597 4.37305 37.5549 4.37305H32.7238C32.5359 4.37305 32.4351 4.45563 32.4351 4.63616V9.47594C32.4351 9.47594 30.0141 10.0604 29.8504 10.1076C29.6873 10.1549 29.5674 10.3052 29.5674 10.4846V13.5259C29.5674 13.7446 29.7421 13.921 29.9581 13.921H32.4351C32.4351 13.921 32.4351 17.102 32.4351 21.2376C32.4351 26.672 36.2471 27.206 38.8195 27.206C39.9947 27.206 41.4007 26.8285 41.6328 26.7428C41.7732 26.6912 41.8547 26.5459 41.8547 26.3882L41.8587 23.0426C41.8587 22.8245 41.6744 22.6478 41.4669 22.6478C41.2604 22.6478 40.7318 22.7318 40.1877 22.7318C38.4464 22.7318 37.8564 21.9221 37.8564 20.8742C37.8564 19.827 37.8562 13.921 37.8562 13.921H41.4015C41.6176 13.921 41.7925 13.7446 41.7925 13.5259V9.71644C41.7925 9.49811 41.6176 9.32238 41.4015 9.32238Z" fill="#EEEEEE"/>
</g>
<defs>
<clipPath id="clip0_123_686">
<rect width="100" height="27.1215" fill="white" transform="translate(0 0.247559)"/>
</clipPath>
</defs>
</svg>
