<svg width="100" height="23" viewBox="0 0 100 23" fill="none" xmlns="http://www.w3.org/2000/svg">
<g clip-path="url(#clip0_123_687)">
<path d="M40.42 9.21985H43.6977C43.151 5.73495 40.1337 3.30762 36.2071 3.30762C31.561 3.30762 28.0747 6.72344 28.0747 12.4443C28.0747 18.063 31.4042 21.5478 36.302 21.5478C40.6977 21.5478 43.8445 18.7205 43.8445 14.1436V12.0112H36.6402V14.5249H40.7323C40.6805 17.0572 38.9898 18.6601 36.3193 18.6601C33.3467 18.6601 31.3092 16.4327 31.3092 12.4098C31.3092 8.41265 33.3812 6.19395 36.2502 6.19395C38.3913 6.19395 39.856 7.33783 40.42 9.21985Z" fill="#E4E4E4"/>
<path d="M46.0113 21.3043H49.1495V7.99496H46.0113V21.3043ZM47.5941 5.87985C48.5912 5.87985 49.4056 5.11582 49.4056 4.18057C49.4056 3.24532 48.5912 2.47266 47.5941 2.47266C46.5969 2.47266 45.7739 3.23525 45.7739 4.18057C45.7739 5.12589 46.5826 5.87985 47.5883 5.87985H47.5941Z" fill="#E4E4E4"/>
<path d="M58.5468 7.99546H55.9194V4.79834H52.7813V7.99546H50.8921V10.4228H52.7813V17.8271C52.764 20.3321 54.5856 21.5681 56.9424 21.4947C57.5702 21.4823 58.1928 21.377 58.7899 21.1825L58.2604 18.7278C57.9606 18.8056 57.6522 18.8468 57.3424 18.8501C56.5525 18.8501 55.9194 18.5724 55.9194 17.3062V10.4156H58.5468V7.99546Z" fill="#E4E4E4"/>
<path d="M60.9756 21.3047H72.0116V18.6083H64.1929V3.54932H60.9756V21.3047Z" fill="#E4E4E4"/>
<path d="M78.0232 21.5737C80.1124 21.5737 81.3599 20.5938 81.9325 19.4759H82.0361V21.3046H85.0577V12.3924C85.0577 8.87298 82.1887 7.81543 79.6477 7.81543C76.8477 7.81543 74.698 9.06291 74.0045 11.4902L76.9354 11.9075C77.2462 10.9967 78.1311 10.2169 79.6692 10.2169C81.1268 10.2169 81.9239 10.9622 81.9239 12.2715V12.3233C81.9239 13.2241 80.9786 13.2687 78.6289 13.519C76.0462 13.7967 73.5757 14.5679 73.5757 17.5679C73.5671 20.1867 75.4822 21.5737 78.0232 21.5737ZM79.0548 19.2715C77.7455 19.2715 76.8088 18.673 76.8088 17.5205C76.8088 16.3147 77.8577 15.8126 79.2548 15.6126C80.0793 15.5003 81.7268 15.2917 82.1325 14.9636V16.532C82.1412 18.0097 80.9441 19.2672 79.0548 19.2672V19.2715Z" fill="#E4E4E4"/>
<path d="M87.3682 21.3047H90.4545V19.2069H90.6358C91.1307 20.1781 92.1624 21.5392 94.4516 21.5392C97.5897 21.5392 99.9394 19.05 99.9394 14.6644C99.9394 10.2256 97.5207 7.8155 94.443 7.8155C92.0933 7.8155 91.1135 9.22845 90.6358 10.191H90.5034V3.54932H87.3682V21.3047ZM90.4459 14.6472C90.4459 12.0572 91.5552 10.3896 93.5754 10.3896C95.6646 10.3896 96.7408 12.1666 96.7408 14.6472C96.7408 17.1277 95.6487 18.9637 93.5754 18.9637C91.5725 18.9637 90.4459 17.2299 90.4459 14.6472Z" fill="#E4E4E4"/>
<path d="M22.1584 9.63134L22.1281 9.55077L19.0778 1.59393C19.0161 1.4377 18.9061 1.30517 18.7641 1.21552C18.6581 1.14766 18.5376 1.10557 18.4125 1.09264C18.2873 1.07971 18.1608 1.09629 18.0431 1.14105C17.9256 1.18581 17.8199 1.25751 17.7351 1.3504C17.6502 1.44329 17.5881 1.55478 17.554 1.67595L15.4951 7.97955H7.15692L5.09792 1.67595C5.06357 1.55497 5.00144 1.44368 4.91646 1.35097C4.83148 1.25826 4.72602 1.18669 4.60846 1.14196C4.49092 1.09724 4.36456 1.0806 4.23944 1.09337C4.11433 1.10614 3.99393 1.14797 3.88784 1.21552C3.74579 1.30517 3.63592 1.4377 3.57417 1.59393L0.525259 9.55221L0.493604 9.63134C0.0546487 10.7786 0.00057102 12.0374 0.339524 13.218C0.678475 14.3986 1.39208 15.4371 2.37275 16.1766L2.38426 16.1853L2.41015 16.2054L7.05043 19.6831L9.35259 21.4227L10.7512 22.4802C10.9153 22.6043 11.1153 22.6713 11.3209 22.6713C11.5266 22.6713 11.7266 22.6043 11.8907 22.4802L13.2893 21.4227L15.5915 19.6831L20.2648 16.1853L20.2778 16.1752C21.2584 15.4359 21.972 14.3978 22.3113 13.2174C22.6504 12.0371 22.5968 10.7785 22.1584 9.63134Z" fill="#E24329"/>
<path d="M22.1584 9.63136L22.1282 9.55078C20.642 9.85575 19.2415 10.4857 18.0274 11.3954L11.3296 16.4601L15.5943 19.6831L20.2677 16.1853L20.2807 16.1752C21.2608 15.4355 21.9739 14.3972 22.3126 13.2169C22.6512 12.0366 22.5971 10.7782 22.1584 9.63136Z" fill="#FC6D26"/>
<path d="M7.05029 19.683L9.35245 21.4226L10.751 22.4801C10.9151 22.6041 11.1151 22.6712 11.3208 22.6712C11.5265 22.6712 11.7265 22.6041 11.8906 22.4801L13.2891 21.4226L15.5913 19.683L11.3266 16.46L7.05029 19.683Z" fill="#FCA326"/>
<path d="M4.62453 11.3954C3.41081 10.4861 2.01092 9.85672 0.525259 9.55225L0.493604 9.63138C0.0546487 10.7786 0.00057102 12.0374 0.339524 13.218C0.678475 14.3986 1.39208 15.4371 2.37275 16.1767L2.38426 16.1853L2.41015 16.2054L7.05043 19.6831L11.3181 16.4601L4.62453 11.3954Z" fill="#FC6D26"/>
</g>
<defs>
<clipPath id="clip0_123_687">
<rect width="100" height="21.7266" fill="white" transform="translate(0 0.944824)"/>
</clipPath>
</defs>
</svg>
