<svg width="100" height="35" viewBox="0 0 100 35" fill="none" xmlns="http://www.w3.org/2000/svg">
<g clip-path="url(#clip0_123_688)">
<path d="M8.8463 29.8082C8.8463 32.1928 6.92327 34.1159 4.53865 34.1159C2.15404 34.1159 0.230957 32.1928 0.230957 29.8082C0.230957 27.4236 2.15404 25.5005 4.53865 25.5005C6.92327 25.5005 8.8463 27.4236 8.8463 29.8082Z" fill="white"/>
<path d="M23.231 29.8855C23.231 31.5778 21.8464 32.9624 20.1541 32.9624C18.4618 32.9624 17.0771 31.5778 17.0771 29.8855C17.0771 28.1932 18.4618 26.8086 20.1541 26.8086C21.8464 26.8086 23.231 28.1932 23.231 29.8855Z" fill="white"/>
<path d="M34.3845 29.8851C34.3845 30.6543 33.7691 31.2697 32.9998 31.2697C32.2306 31.2697 31.6152 30.6543 31.6152 29.8851C31.6152 29.1159 32.2306 28.5005 32.9998 28.5005C33.7691 28.5005 34.3845 29.1159 34.3845 29.8851Z" fill="white"/>
<path d="M19.3079 20.7314C18.5387 20.7314 18.0002 20.116 18.0002 19.4237V13.7314C18.0002 11.8083 17.0771 10.2699 15.0002 10.2699C12.9233 10.2699 11.6156 11.8853 11.6156 13.7314V19.3468C11.6156 20.116 11.0771 20.6545 10.3079 20.6545C9.53869 20.6545 9.00023 20.0391 9.00023 19.3468V13.6545C9.00023 11.7314 8.00023 10.1929 5.9233 10.1929C3.76946 10.1929 2.69253 11.8083 2.69253 13.6545V19.2699C2.69253 20.0391 2.15407 20.5776 1.38484 20.5776C0.61561 20.5776 0.0771484 19.9622 0.0771484 19.2699V9.34679C0.0771484 8.57756 0.61561 7.96218 1.38484 7.96218C2.30792 7.96218 2.69253 8.57756 2.69253 9.34679V10.2699C3.46177 8.80833 5.00023 7.88525 6.69253 7.88525C8.69253 7.88525 10.231 8.88525 11.0002 10.4237C12.0771 8.73141 13.6925 7.88525 15.6925 7.88525C19.0772 7.88525 20.7695 10.2699 20.7695 13.5776V19.4237C20.6925 20.116 20.1541 20.7314 19.3079 20.7314Z" fill="white"/>
<path d="M24.3847 20.7316C23.6154 20.7316 23.077 20.1162 23.077 19.4239V9.34702C23.077 8.57779 23.6154 8.03933 24.3847 8.03933C25.1539 8.03933 25.6923 8.65471 25.6923 9.34702V19.4239C25.6923 20.1162 25.1539 20.7316 24.3847 20.7316ZM24.3847 2.9624C25.2308 2.9624 25.9231 3.65471 25.9231 4.50086C25.9231 5.34702 25.2308 6.03933 24.3847 6.03933C23.5385 6.03933 22.8462 5.34702 22.8462 4.50086C22.8462 3.65471 23.5385 2.9624 24.3847 2.9624Z" fill="white"/>
<path d="M33.1541 12.5775L36.5388 8.42368C36.7695 8.19291 37.0772 8.03906 37.3849 8.03906C38.1541 8.03906 38.6157 8.5006 38.6157 9.19291C38.6157 9.42368 38.5388 9.73137 38.308 9.96214L34.6157 14.3468L38.3849 18.8083C38.6157 19.0391 38.6926 19.2698 38.6926 19.5775C38.6926 20.1929 38.1541 20.7314 37.5388 20.7314C37.1541 20.7314 36.8465 20.5775 36.6157 20.2698L33.2311 16.0391L29.8465 20.2698C29.6157 20.5775 29.308 20.7314 28.9234 20.7314C28.308 20.7314 27.7695 20.1929 27.7695 19.5775C27.7695 19.2698 27.8465 19.0391 28.0772 18.8083L31.8465 14.3468L28.1541 9.96214C27.9234 9.73137 27.8465 9.42368 27.8465 9.19291C27.8465 8.5006 28.308 8.03906 29.0772 8.03906C29.4618 8.03906 29.6926 8.19291 29.9234 8.42368L33.1541 12.5775Z" fill="white"/>
<path d="M47.077 10.1162C44.7693 10.1162 43.3078 12.1162 43.3078 14.4239C43.3078 16.6547 44.8462 18.7316 47.077 18.7316C49.3847 18.7316 50.8462 17.0393 50.8462 14.4239C50.8462 11.8086 49.3847 10.1162 47.077 10.1162ZM47.6155 20.8855C45.6924 20.8855 44.1539 19.8855 43.3078 18.4239V24.7316C43.3078 25.5009 42.7693 26.0393 42.0001 26.0393C41.2308 26.0393 40.6924 25.4239 40.6924 24.7316V9.34702C40.6924 8.57779 41.1539 8.03933 41.9232 8.03933C42.6924 8.03933 43.2308 8.65471 43.2308 9.42394V10.4239C44.077 8.9624 45.7693 7.9624 47.6155 7.9624C50.8462 7.9624 53.4616 10.6547 53.4616 14.4239C53.4616 18.2701 50.8462 20.8855 47.6155 20.8855Z" fill="white"/>
<path d="M61.0001 10.1932C58.7693 10.1932 57.154 12.1162 57.154 14.4239C57.154 16.8855 58.4616 18.6547 61.0001 18.6547C63.3078 18.6547 64.8463 16.6547 64.8463 14.4239C64.7693 11.7316 63.2309 10.1932 61.0001 10.1932ZM67.4616 19.4239C67.4616 20.1932 66.9232 20.7316 66.154 20.7316C65.3847 20.7316 64.8463 20.1162 64.8463 19.4239V18.8086C64.077 19.9624 62.5386 20.8855 60.7693 20.8855C56.8463 20.8855 54.5386 17.9624 54.5386 14.4239C54.5386 10.8855 57.077 7.9624 61.077 7.9624C65.154 7.9624 67.5386 10.6547 67.5386 14.4239V19.4239H67.4616Z" fill="white"/>
<path d="M75.3848 7.88525C78.7693 7.88525 81.3078 10.5006 81.3078 13.8083V19.4237C81.3078 20.1929 80.6924 20.7314 80.0001 20.7314C79.2308 20.7314 78.6924 20.116 78.6924 19.4237V13.5006C78.6924 11.7314 77.3078 10.3468 75.4617 10.3468C73.6155 10.3468 72.2309 11.7314 72.2309 13.5006V19.4237C72.2309 20.1929 71.6155 20.7314 70.9232 20.7314C70.154 20.7314 69.6155 20.116 69.6155 19.4237V13.8083C69.5386 10.5006 72.0001 7.88525 75.3848 7.88525Z" fill="white"/>
<path d="M89.2305 10.0391C87.3075 10.0391 85.9998 11.4237 85.6921 13.1929H92.6152C92.3844 11.4237 91.1536 10.0391 89.2305 10.0391ZM95.0767 14.4237C95.0767 14.8853 94.8459 15.3468 94.0767 15.3468H85.6921C85.8459 17.2699 87.1536 18.7314 89.4613 18.7314C90.9229 18.7314 91.769 18.1929 92.6921 17.3468C92.9228 17.116 93.2305 16.8853 93.5382 16.8853C94.1536 16.8853 94.6152 17.3468 94.6152 17.9622C94.6152 18.2699 94.4613 18.5006 94.3075 18.7314C93.2305 19.9622 91.3075 20.8083 89.3075 20.8083C85.0767 20.8083 82.9229 17.8853 82.9229 14.3468C82.9229 10.6545 85.6152 7.88525 89.2305 7.88525C92.769 7.88525 95.0767 10.8083 95.0767 14.4237Z" fill="white"/>
<path d="M98.2305 20.7313C97.4613 20.7313 96.9229 20.1159 96.9229 19.4236V2.80818C96.9229 2.03895 97.4613 1.50049 98.2305 1.50049C98.9998 1.50049 99.5382 2.11587 99.5382 2.80818V19.4236C99.5382 20.1159 98.9998 20.7313 98.2305 20.7313Z" fill="white"/>
</g>
<defs>
<clipPath id="clip0_123_688">
<rect width="100" height="33.8462" fill="white" transform="translate(0 0.885254)"/>
</clipPath>
</defs>
</svg>
