<svg width="100" height="23" viewBox="0 0 100 23" fill="none" xmlns="http://www.w3.org/2000/svg">
<g clip-path="url(#clip0_123_690)">
<path d="M32.8838 18.7051V4.70118H35.9209L40.081 11.7227H40.1592L44.3193 4.70118H47.3174V18.7051H44.6806V9.04687H44.6025L40.1982 16.3614H40.0029L35.5986 8.98825H35.5205V18.7051H32.8838ZM54.6025 18.8809C52.9749 18.8809 51.7281 18.3894 50.8623 17.4062C49.9834 16.4297 49.5439 15.1374 49.5439 13.5293C49.5439 11.9212 49.9834 10.6191 50.8623 9.62308C51.7412 8.62694 52.9879 8.12894 54.6025 8.12894C56.2041 8.12894 57.4443 8.62694 58.3232 9.62308C59.2021 10.6191 59.6416 11.9212 59.6416 13.5293C59.6416 15.1178 59.2086 16.4036 58.3428 17.3867C57.4639 18.3828 56.2171 18.8809 54.6025 18.8809ZM54.6025 16.5274C56.1454 16.5274 56.917 15.528 56.917 13.5293C56.917 11.498 56.1454 10.4824 54.6025 10.4824C53.053 10.4824 52.2783 11.498 52.2783 13.5293C52.2783 15.528 53.053 16.5274 54.6025 16.5274ZM67.1416 18.8809C65.8981 18.8809 64.941 18.4479 64.2705 17.582H64.1826L63.9092 18.7051H61.5068V3.90039H64.1826V9.42777H64.2705C64.941 8.56184 65.8981 8.12894 67.1416 8.12894C68.4632 8.12894 69.505 8.62694 70.2664 9.62308C71.0285 10.6191 71.4092 11.9147 71.4092 13.5098C71.4092 15.1309 71.0285 16.4297 70.2664 17.4062C69.4788 18.3894 68.4372 18.8809 67.1416 18.8809ZM64.6416 15.668C65.0192 16.2409 65.6019 16.5274 66.3896 16.5274C67.1774 16.5274 67.7633 16.2474 68.1474 15.6875C68.5055 15.1341 68.6845 14.4082 68.6845 13.5098C68.6845 12.5918 68.5055 11.8561 68.1474 11.3027C67.7568 10.7558 67.1709 10.4824 66.3896 10.4824C65.5888 10.4824 65.0061 10.7624 64.6416 11.3223C64.2705 11.8627 64.085 12.5918 64.085 13.5098C64.085 14.4082 64.2705 15.1276 64.6416 15.668ZM78.8995 18.8809C77.6561 18.8809 76.6988 18.4479 76.0285 17.582H75.9402L75.6671 18.7051H73.2643V3.90039H75.9402V9.42777H76.0285C76.6988 8.56184 77.6561 8.12894 78.8995 8.12894C80.2209 8.12894 81.263 8.62694 82.0243 9.62308C82.7864 10.6191 83.1671 11.9147 83.1671 13.5098C83.1671 15.1309 82.7864 16.4297 82.0243 17.4062C81.2368 18.3894 80.1947 18.8809 78.8995 18.8809ZM76.3995 15.668C76.7768 16.2409 77.3595 16.5274 78.1471 16.5274C78.9354 16.5274 79.5209 16.2474 79.905 15.6875C80.2636 15.1341 80.4423 14.4082 80.4423 13.5098C80.4423 12.5918 80.2636 11.8561 79.905 11.3027C79.5147 10.7558 78.9285 10.4824 78.1471 10.4824C77.3464 10.4824 76.7636 10.7624 76.3995 11.3223C76.0285 11.8627 75.843 12.5918 75.843 13.5098C75.843 14.4082 76.0285 15.1276 76.3995 15.668ZM86.3795 7.00584C85.8264 7.00584 85.4133 6.85935 85.1395 6.56639C84.8595 6.28646 84.7195 5.88607 84.7195 5.36524C84.7195 4.87695 84.8595 4.48307 85.1395 4.1836C85.4195 3.90364 85.8333 3.76367 86.3795 3.76367C86.894 3.76367 87.3009 3.90364 87.6009 4.1836C87.8933 4.47656 88.0402 4.87044 88.0402 5.36524C88.0402 5.89258 87.8933 6.29294 87.6009 6.56639C87.3078 6.85935 86.9009 7.00584 86.3795 7.00584ZM85.0223 18.7051V8.30467H87.6981V18.7051H85.0223ZM89.9637 18.7051V8.30467H92.3664L92.5616 9.48632H92.6395C93.3299 8.58135 94.3161 8.12894 95.5988 8.12894C96.7574 8.12894 97.6788 8.46094 98.3623 9.12501C99.0457 9.8086 99.3878 10.7298 99.3878 11.8887V18.7051H96.7023V12.6406C96.7023 11.2539 96.0609 10.5605 94.7781 10.5605C94.1471 10.5605 93.6354 10.7754 93.245 11.2051C92.8416 11.6283 92.6395 12.2077 92.6395 12.9434V18.7051H89.9637Z" fill="white"/>
<path fill-rule="evenodd" clip-rule="evenodd" d="M18.723 1.46488C18.6354 1.4577 18.5448 1.47617 18.4629 1.52343L11.6725 5.44389L4.88204 1.52343C4.80754 1.48042 4.72583 1.46126 4.64574 1.46357C4.56563 1.46126 4.48392 1.48042 4.40943 1.52343L0.92037 3.53784C0.783929 3.61661 0.704646 3.75637 0.697074 3.90281C0.692067 3.92961 0.689453 3.95724 0.689453 3.98548V19.877C0.689453 19.9001 0.691212 19.9228 0.694598 19.945C0.684206 20.1094 0.765288 20.2734 0.917612 20.3613L4.40667 22.3757C4.49205 22.425 4.58694 22.443 4.678 22.4332C4.76905 22.443 4.86393 22.425 4.94932 22.3757L8.43835 20.3613C8.51214 20.3188 8.56918 20.2583 8.60725 20.1887C8.65318 20.1183 8.67994 20.0343 8.67994 19.9441V12.2953L11.5245 13.9376C11.6063 13.9848 11.6969 14.0033 11.7845 13.9961C11.872 14.0033 11.9626 13.9848 12.0444 13.9376L14.7902 12.3523V19.9441C14.7902 19.9868 14.7962 20.0281 14.8074 20.0673C14.833 20.1868 14.9072 20.2954 15.0213 20.3613L18.5103 22.3757C18.5941 22.4241 18.6869 22.4423 18.7764 22.4337C18.8657 22.4423 18.9586 22.4241 19.0423 22.3757L22.5314 20.3613C22.6852 20.2725 22.7664 20.1061 22.754 19.94C22.7569 19.9194 22.7584 19.8983 22.7584 19.8769V3.98548C22.7584 3.84305 22.6919 3.71615 22.5882 3.63416C22.5561 3.59668 22.5172 3.56392 22.472 3.53784L18.983 1.52343C18.9011 1.47617 18.8106 1.4577 18.723 1.46488ZM21.8631 19.7133V4.4464L11.8206 10.2445C11.7464 10.2873 11.6652 10.3065 11.5855 10.3044C11.5057 10.3065 11.4245 10.2873 11.3503 10.2445L1.58474 4.60631V19.7127L4.27059 21.2634V9.58104C4.27059 9.45476 4.3229 9.34069 4.40704 9.25931C4.53966 9.0749 4.79309 9.01745 4.994 9.13345L11.7844 13.0539L18.5749 9.13345C18.789 9.00979 19.0628 9.08317 19.1863 9.29731C19.2067 9.33248 19.2217 9.36931 19.2317 9.40683C19.2543 9.46041 19.2668 9.51924 19.2668 9.58104V21.2123L21.8631 19.7133ZM18.3715 21.2618L15.6855 19.711V11.8864C15.6855 11.8697 15.6846 11.8532 15.6828 11.837L18.3715 10.2846V21.2618ZM7.78463 19.705V11.8864C7.78463 11.8516 7.78863 11.8177 7.79614 11.785L5.16589 10.2665V21.2169L7.78463 19.705ZM21.1639 3.81635L11.5855 9.34641L2.11782 3.88028L4.64574 2.42079L11.4125 6.32759C11.4944 6.37483 11.5849 6.39331 11.6725 6.38614C11.7601 6.39331 11.8506 6.37483 11.9324 6.32759L18.723 2.4071L21.1639 3.81635Z" fill="white"/>
<path d="M18.723 1.46493L18.7089 1.63677L18.723 1.63792L18.7371 1.63677L18.723 1.46493ZM11.6725 5.44394L11.5863 5.59326L11.6725 5.64303L11.7587 5.59326L11.6725 5.44394ZM4.64579 1.46362L4.64081 1.63596L4.64579 1.6361L4.65075 1.63596L4.64579 1.46362ZM0.697124 3.90286L0.866607 3.93451L0.868711 3.92322L0.869304 3.91177L0.697124 3.90286ZM0.694648 19.9451L0.866724 19.956L0.867897 19.9374L0.86509 19.9191L0.694648 19.9451ZM4.67805 22.4332L4.69648 22.2618L4.67805 22.2598L4.65961 22.2618L4.67805 22.4332ZM8.6073 20.1887L8.46295 20.0944L8.45923 20.1001L8.45599 20.1061L8.6073 20.1887ZM8.67999 12.2954L8.76619 12.146L8.50757 11.9967V12.2954H8.67999ZM11.7845 13.9962L11.7986 13.8243L11.7845 13.8232L11.7704 13.8243L11.7845 13.9962ZM14.7903 12.3523H14.9627V12.0537L14.7041 12.203L14.7903 12.3523ZM14.8074 20.0674L14.9761 20.0312L14.9748 20.0256L14.9732 20.02L14.8074 20.0674ZM18.7764 22.4338L18.7927 22.2622L18.7764 22.2606L18.76 22.2622L18.7764 22.4338ZM22.7541 19.9401L22.5834 19.916L22.5807 19.9344L22.5821 19.9529L22.7541 19.9401ZM22.5883 3.63421L22.4574 3.7464L22.4682 3.75908L22.4813 3.76945L22.5883 3.63421ZM21.8632 19.7134L21.9494 19.8627L22.0356 19.8129V19.7134H21.8632ZM21.8632 4.44645H22.0356V4.14782L21.777 4.29714L21.8632 4.44645ZM11.5855 10.3045L11.59 10.1318L11.581 10.1321L11.5855 10.3045ZM1.58479 4.60636L1.671 4.45704L1.41238 4.30773V4.60636H1.58479ZM1.58479 19.7127H1.41238V19.8123L1.49859 19.8621L1.58479 19.7127ZM4.27064 21.2634L4.18443 21.4127L4.44306 21.562V21.2634H4.27064ZM4.40709 9.25936L4.52697 9.38322L4.53806 9.37253L4.54706 9.35998L4.40709 9.25936ZM11.7845 13.0539L11.6983 13.2032L11.7845 13.253L11.8707 13.2032L11.7845 13.0539ZM19.2317 9.40688L19.065 9.45102L19.0681 9.46281L19.0729 9.47405L19.2317 9.40688ZM19.2669 21.2123H19.0945V21.5109L19.3531 21.3616L19.2669 21.2123ZM15.6856 19.711H15.5132V19.8106L15.5994 19.8603L15.6856 19.711ZM18.3716 21.2618L18.2854 21.4112L18.544 21.5605V21.2618H18.3716ZM15.6829 11.837L15.5967 11.6877L15.4992 11.744L15.5115 11.8558L15.6829 11.837ZM18.3716 10.2847H18.544V9.98605L18.2854 10.1354L18.3716 10.2847ZM7.78468 19.705L7.87088 19.8543L7.95709 19.8045V19.705H7.78468ZM7.79619 11.7851L7.96419 11.824L7.99295 11.6996L7.8824 11.6358L7.79619 11.7851ZM5.16594 10.2665L5.25215 10.1172L4.99352 9.96791V10.2665H5.16594ZM5.16594 21.2169H4.99352V21.5156L5.25215 21.3663L5.16594 21.2169ZM11.5855 9.34646L11.4993 9.49577L11.5855 9.54557L11.6717 9.49577L11.5855 9.34646ZM21.1639 3.8164L21.2501 3.96571L21.5087 3.8164L21.2501 3.66708L21.1639 3.8164ZM2.11787 3.88033L2.03166 3.73102L1.77304 3.88033L2.03166 4.02965L2.11787 3.88033ZM4.64579 2.42084L4.73199 2.27153L4.64579 2.22175L4.55958 2.27153L4.64579 2.42084ZM11.6725 6.38619L11.6866 6.21435L11.6725 6.2132L11.6585 6.21435L11.6725 6.38619ZM18.723 2.40715L18.8092 2.25784L18.723 2.20806L18.6368 2.25784L18.723 2.40715ZM18.5492 1.6728C18.5997 1.64362 18.6552 1.63236 18.7089 1.63677L18.7371 1.29309C18.6157 1.28313 18.49 1.30882 18.3767 1.37416L18.5492 1.6728ZM11.7587 5.59326L18.5492 1.6728L18.3767 1.37416L11.5863 5.29463L11.7587 5.59326ZM4.79588 1.6728L11.5863 5.59326L11.7587 5.29463L4.9683 1.37416L4.79588 1.6728ZM4.65075 1.63596C4.69983 1.63454 4.74985 1.64622 4.79588 1.6728L4.9683 1.37416C4.86535 1.31473 4.75193 1.28807 4.64081 1.29127L4.65075 1.63596ZM4.49569 1.6728C4.54172 1.64622 4.59174 1.63454 4.64081 1.63596L4.65075 1.29127C4.53963 1.28807 4.42622 1.31473 4.32328 1.37416L4.49569 1.6728ZM1.00663 3.6872L4.49569 1.6728L4.32328 1.37416L0.834214 3.38857L1.00663 3.6872ZM0.869304 3.91177C0.873986 3.8212 0.92289 3.73555 1.00663 3.6872L0.834214 3.38857C0.645064 3.49778 0.535399 3.69164 0.524938 3.89396L0.869304 3.91177ZM0.861917 3.98553C0.861917 3.96795 0.863545 3.95091 0.866607 3.93451L0.527637 3.87122C0.520695 3.9084 0.51709 3.94662 0.51709 3.98553H0.861917ZM0.861917 19.877V3.98553H0.51709V19.877H0.861917ZM0.86509 19.9191C0.863014 19.9054 0.861917 19.8914 0.861917 19.877H0.51709C0.51709 19.9089 0.519513 19.9403 0.524212 19.9711L0.86509 19.9191ZM1.00387 20.212C0.910435 20.1581 0.860304 20.0575 0.866724 19.956L0.522582 19.9342C0.508211 20.1614 0.620248 20.3887 0.831455 20.5107L1.00387 20.212ZM4.49292 22.2265L1.00387 20.212L0.831455 20.5107L4.32051 22.5251L4.49292 22.2265ZM4.65961 22.2618C4.60367 22.2678 4.54561 22.2569 4.49292 22.2265L4.32051 22.5251C4.43861 22.5933 4.5703 22.6183 4.69648 22.6047L4.65961 22.2618ZM4.86316 22.2265C4.81048 22.2569 4.75242 22.2678 4.69648 22.2618L4.65961 22.6047C4.78579 22.6183 4.91748 22.5933 5.03557 22.5251L4.86316 22.2265ZM8.35219 20.212L4.86316 22.2265L5.03557 22.5251L8.52461 20.5107L8.35219 20.212ZM8.45599 20.1061C8.43268 20.1487 8.39778 20.1857 8.35219 20.212L8.52461 20.5107C8.62654 20.4518 8.70578 20.368 8.75861 20.2714L8.45599 20.1061ZM8.50757 19.9441C8.50757 19.9999 8.49116 20.0513 8.46295 20.0944L8.75164 20.283C8.81537 20.1856 8.8524 20.0689 8.8524 19.9441H8.50757ZM8.50757 12.2954V19.9441H8.8524V12.2954H8.50757ZM11.6107 13.7883L8.76619 12.146L8.59378 12.4447L11.4383 14.0869L11.6107 13.7883ZM11.7704 13.8243C11.7167 13.8287 11.6612 13.8175 11.6107 13.7883L11.4383 14.0869C11.5515 14.1523 11.6772 14.178 11.7986 14.168L11.7704 13.8243ZM11.9583 13.7883C11.9077 13.8175 11.8523 13.8287 11.7986 13.8243L11.7705 14.168C11.8918 14.178 12.0175 14.1523 12.1307 14.0869L11.9583 13.7883ZM14.7041 12.203L11.9583 13.7883L12.1307 14.0869L14.8765 12.5016L14.7041 12.203ZM14.9627 19.9441V12.3523H14.6178V19.9441H14.9627ZM14.9732 20.02C14.9664 19.9961 14.9627 19.9707 14.9627 19.9441H14.6178C14.6178 20.003 14.6261 20.0603 14.6416 20.1147L14.9732 20.02ZM15.1076 20.212C15.0374 20.1715 14.9918 20.105 14.9761 20.0312L14.6389 20.1035C14.6743 20.2687 14.777 20.4194 14.9352 20.5107L15.1076 20.212ZM18.5966 22.2265L15.1076 20.212L14.9352 20.5107L18.4242 22.5251L18.5966 22.2265ZM18.76 22.2622C18.7051 22.2674 18.6483 22.2563 18.5966 22.2265L18.4242 22.5251C18.54 22.5919 18.6688 22.6172 18.7927 22.6054L18.76 22.2622ZM18.9561 22.2265C18.9045 22.2563 18.8476 22.2674 18.7927 22.2622L18.76 22.6054C18.8839 22.6172 19.0128 22.5919 19.1285 22.5251L18.9561 22.2265ZM22.4452 20.212L18.9561 22.2265L19.1285 22.5251L22.6176 20.5107L22.4452 20.212ZM22.5821 19.9529C22.5898 20.0554 22.5396 20.1576 22.4452 20.212L22.6176 20.5107C22.831 20.3875 22.9432 20.1568 22.926 19.9272L22.5821 19.9529ZM22.5861 19.8769C22.5861 19.8903 22.5852 19.9034 22.5834 19.916L22.9248 19.9641C22.9288 19.9356 22.9309 19.9065 22.9309 19.8769H22.5861ZM22.5861 3.98553V19.8769H22.9309V3.98553H22.5861ZM22.4813 3.76945C22.5454 3.82014 22.5861 3.89804 22.5861 3.98553H22.9309C22.9309 3.78815 22.8385 3.61225 22.6952 3.49897L22.4813 3.76945ZM22.3858 3.6872C22.4139 3.7034 22.4378 3.72353 22.4574 3.7464L22.7192 3.52203C22.6745 3.46993 22.6206 3.42455 22.5583 3.38857L22.3858 3.6872ZM18.8968 1.6728L22.3858 3.6872L22.5583 3.38857L19.0692 1.37416L18.8968 1.6728ZM18.7371 1.63677C18.7908 1.63236 18.8463 1.64362 18.8968 1.6728L19.0692 1.37416C18.9561 1.30882 18.8303 1.28314 18.7089 1.29309L18.7371 1.63677ZM22.0356 19.7134V4.44645H21.6907V19.7134H22.0356ZM21.777 4.29714L11.7344 10.0952L11.9068 10.3938L21.9494 4.59577L21.777 4.29714ZM11.7344 10.0952C11.6886 10.1216 11.6388 10.1332 11.59 10.1318L11.581 10.4768C11.6916 10.4797 11.8044 10.453 11.9068 10.3938L11.7344 10.0952ZM11.581 10.1321C11.5322 10.1334 11.4824 10.1216 11.4366 10.0952L11.2642 10.3938C11.3666 10.453 11.4794 10.4797 11.59 10.4768L11.581 10.1321ZM11.4366 10.0952L1.671 4.45704L1.49859 4.75568L11.2642 10.3938L11.4366 10.0952ZM1.41238 4.60636V19.7127H1.75721V4.60636H1.41238ZM1.49859 19.8621L4.18443 21.4127L4.35685 21.1141L1.671 19.5634L1.49859 19.8621ZM4.44306 21.2634V9.58109H4.09823V21.2634H4.44306ZM4.44306 9.58109C4.44306 9.50343 4.47501 9.4335 4.52697 9.38322L4.28721 9.13543C4.17089 9.24791 4.09823 9.40619 4.09823 9.58109H4.44306ZM4.54706 9.35998C4.6285 9.24674 4.78441 9.2115 4.90784 9.28281L5.08026 8.98419C4.80188 8.82343 4.45092 8.90308 4.26711 9.15867L4.54706 9.35998ZM4.90784 9.28281L11.6983 13.2032L11.8707 12.9046L5.08026 8.98419L4.90784 9.28281ZM11.8707 13.2032L18.6612 9.28281L18.4887 8.98419L11.6983 12.9046L11.8707 13.2032ZM18.6612 9.28281C18.7928 9.20681 18.9611 9.25191 19.0371 9.38357L19.3358 9.21115C19.1645 8.91453 18.7853 8.81295 18.4887 8.98419L18.6612 9.28281ZM19.0371 9.38357C19.0498 9.40543 19.059 9.42805 19.065 9.45102L19.3984 9.36281C19.3846 9.31067 19.3638 9.25971 19.3358 9.21115L19.0371 9.38357ZM19.0729 9.47405C19.0867 9.50674 19.0945 9.54281 19.0945 9.58109H19.4393C19.4393 9.49584 19.422 9.41412 19.3905 9.33971L19.0729 9.47405ZM19.0945 9.58109V21.2123H19.4393V9.58109H19.0945ZM19.3531 21.3616L21.9494 19.8627L21.777 19.5641L19.1807 21.063L19.3531 21.3616ZM15.5994 19.8603L18.2854 21.4112L18.4578 21.1125L15.7718 19.5617L15.5994 19.8603ZM15.5132 11.8865V19.711H15.858V11.8865H15.5132ZM15.5115 11.8558C15.5126 11.8658 15.5132 11.8761 15.5132 11.8865H15.858C15.858 11.8634 15.8567 11.8407 15.8543 11.8182L15.5115 11.8558ZM18.2854 10.1354L15.5967 11.6877L15.7691 11.9863L18.4578 10.434L18.2854 10.1354ZM18.544 21.2618V10.2847H18.1992V21.2618H18.544ZM7.61226 11.8865V19.705H7.95709V11.8865H7.61226ZM7.62826 11.7462C7.61778 11.7914 7.61226 11.8385 7.61226 11.8865H7.95709C7.95709 11.8648 7.95957 11.8439 7.96419 11.824L7.62826 11.7462ZM5.07973 10.4158L7.70999 11.9344L7.8824 11.6358L5.25215 10.1172L5.07973 10.4158ZM5.33835 21.2169V10.2665H4.99352V21.2169H5.33835ZM7.69847 19.5557L5.07973 21.0676L5.25215 21.3663L7.87088 19.8543L7.69847 19.5557ZM11.6717 9.49577L21.2501 3.96571L21.0777 3.66708L11.4993 9.19715L11.6717 9.49577ZM2.03166 4.02965L11.4993 9.49577L11.6717 9.19715L2.20408 3.73102L2.03166 4.02965ZM4.55958 2.27153L2.03166 3.73102L2.20408 4.02965L4.73199 2.57016L4.55958 2.27153ZM11.4987 6.17833L4.73199 2.27153L4.55958 2.57016L11.3263 6.47695L11.4987 6.17833ZM11.6585 6.21435C11.6047 6.21876 11.5493 6.2075 11.4987 6.17833L11.3263 6.47695C11.4395 6.54233 11.5652 6.56798 11.6866 6.55805L11.6585 6.21435ZM11.8463 6.17833C11.7958 6.2075 11.7403 6.21876 11.6866 6.21435L11.6585 6.55805C11.7798 6.56798 11.9056 6.54233 12.0187 6.47695L11.8463 6.17833ZM18.6368 2.25784L11.8463 6.17833L12.0187 6.47695L18.8092 2.55646L18.6368 2.25784ZM21.2501 3.66708L18.8092 2.25784L18.6368 2.55646L21.0777 3.96571L21.2501 3.66708Z" fill="white"/>
</g>
<defs>
<clipPath id="clip0_123_690">
<rect width="100" height="22.069" fill="white" transform="translate(0 0.773926)"/>
</clipPath>
</defs>
</svg>
