<svg width="100" height="36" viewBox="0 0 100 36" fill="none" xmlns="http://www.w3.org/2000/svg">
<g clip-path="url(#clip0_123_689)">
<path d="M2.07471 2.054L21.1552 0.644798C23.4989 0.443649 24.1011 0.579281 25.5747 1.65055L31.6655 5.94135C32.6701 6.67928 33.0046 6.88043 33.0046 7.68388V31.2161C33.0046 32.6908 32.469 33.5632 30.5943 33.6966L8.43678 35.0379C7.02989 35.1046 6.35977 34.9035 5.62299 33.9644L1.13793 28.1322C0.333333 27.0586 0 26.2552 0 25.3161V4.39882C0 3.19308 0.535632 2.18733 2.07471 2.054Z" fill="white"/>
<path fill-rule="evenodd" clip-rule="evenodd" d="M21.1552 0.644798L2.07471 2.054C0.535632 2.18733 0 3.19308 0 4.39882V25.3161C0 26.2552 0.333333 27.0586 1.13793 28.1322L5.62299 33.9644C6.35977 34.9035 7.02989 35.1046 8.43678 35.0379L30.5943 33.6966C32.4678 33.5632 33.0046 32.6908 33.0046 31.2161V7.68388C33.0046 6.92181 32.7034 6.70227 31.8172 6.0517C31.7662 6.01496 31.7153 5.97818 31.6644 5.94135L25.5747 1.65055C24.1011 0.579281 23.4989 0.443649 21.1552 0.644798ZM8.93793 7.29882C7.12874 7.42066 6.71839 7.44825 5.6908 6.61262L3.07816 4.53446C2.81264 4.26549 2.94598 3.92986 3.61494 3.86319L21.9575 2.52296C23.4977 2.38848 24.3 2.92526 24.9023 3.39423L28.0483 5.67354C28.1828 5.74135 28.5172 6.1425 28.1149 6.1425L9.17241 7.28273L8.93793 7.29882ZM6.82874 31.015V11.0379C6.82874 10.1655 7.09655 9.76319 7.89885 9.69538L29.6552 8.42181C30.3931 8.35515 30.7264 8.82411 30.7264 9.69538V29.5391C30.7264 30.4115 30.592 31.1494 29.3874 31.2161L8.56782 32.423C7.36322 32.4897 6.82874 32.0885 6.82874 31.015ZM27.3805 12.1092C27.5138 12.7127 27.3805 13.3161 26.777 13.3851L25.7736 13.5839V28.3334C24.9023 28.8023 24.1 29.0701 23.4299 29.0701C22.3586 29.0701 22.0908 28.7345 21.2885 27.7299L14.7264 17.4058V27.3943L16.8023 27.8644C16.8023 27.8644 16.8023 29.0713 15.1276 29.0713L10.5103 29.3391C10.3759 29.0701 10.5103 28.4 10.9782 28.2667L12.1839 27.9322V14.7253L10.5103 14.5897C10.3759 13.9862 10.7103 13.115 11.6483 13.0471L16.6023 12.7138L23.4299 23.1713V13.9196L21.6897 13.7196C21.5552 12.9805 22.0908 12.4437 22.7598 12.3782L27.3805 12.1092Z" fill="white"/>
<path d="M47.6257 24.9931V15.9012H47.7832L54.3395 24.9931H56.4039V11.6322H54.1085V20.715H53.951L47.3947 11.6322H45.3223V24.992H47.6269L47.6257 24.9931ZM62.8912 25.1977C65.92 25.1977 67.7625 23.2161 67.7625 19.9288C67.7625 16.6506 65.9108 14.6598 62.8912 14.6598C59.882 14.6598 58.0211 16.6598 58.0211 19.9288C58.0211 23.2161 59.8544 25.1977 62.8912 25.1977ZM62.8912 23.2713C61.2901 23.2713 60.374 22.0494 60.374 19.9288C60.374 17.8173 61.2901 16.5862 62.8912 16.5862C64.4843 16.5862 65.4004 17.8173 65.4004 19.9288C65.4004 22.0494 64.4935 23.2713 62.8912 23.2713ZM69.8602 12.3828V14.9288H68.259V16.7621H69.8602V22.2897C69.8602 24.2529 70.7866 25.0402 73.1108 25.0402C73.5545 25.0402 73.9809 24.9943 74.3142 24.9288V23.1322C74.0361 23.1598 73.8602 23.1782 73.5361 23.1782C72.574 23.1782 72.1476 22.7345 72.1476 21.7345V16.7621H74.3142V14.9288H72.1476V12.3816H69.8602V12.3828ZM75.6901 24.9931H77.9774V14.8632H75.6901V24.9931ZM76.8292 13.1885C77.5878 13.1885 78.1993 12.5759 78.1993 11.8081C78.1993 11.0391 77.5889 10.4185 76.8292 10.4185C76.0797 10.4185 75.459 11.0391 75.459 11.8081C75.459 12.5759 76.0797 13.1874 76.8292 13.1874V13.1885ZM84.2522 25.1977C87.2797 25.1977 89.1223 23.2161 89.1223 19.9288C89.1223 16.6506 87.2705 14.6598 84.2522 14.6598C81.2418 14.6598 79.3809 16.6598 79.3809 19.9288C79.3809 23.2161 81.2142 25.1977 84.2522 25.1977ZM84.2522 23.2713C82.6499 23.2713 81.7326 22.0494 81.7326 19.9288C81.7326 17.8173 82.6499 16.5862 84.2522 16.5862C85.8441 16.5862 86.7613 17.8173 86.7613 19.9288C86.7613 22.0494 85.8533 23.2713 84.2522 23.2713ZM90.4889 24.9931H92.7855V19.0954C92.7855 17.6046 93.6476 16.6598 95.0165 16.6598C96.4154 16.6598 97.0625 17.438 97.0625 18.9839V24.9931H99.3602V18.438C99.3602 16.0207 98.128 14.6598 95.8694 14.6598C94.359 14.6598 93.3407 15.354 92.8591 16.4839H92.7016V14.8632H90.4889V24.9931Z" fill="white"/>
</g>
<defs>
<clipPath id="clip0_123_689">
<rect width="100" height="34.4828" fill="white" transform="translate(0 0.566895)"/>
</clipPath>
</defs>
</svg>
