<svg width="100" height="28" viewBox="0 0 100 28" fill="none" xmlns="http://www.w3.org/2000/svg">
<g clip-path="url(#clip0_123_691)">
<path fill-rule="evenodd" clip-rule="evenodd" d="M41.6934 13.1505C41.3639 13.4908 40.9495 13.6607 40.45 13.6607H38.355V10.115H40.45C40.9495 10.115 41.3639 10.2823 41.6934 10.6168C42.0226 10.9512 42.187 11.3751 42.187 11.8877C42.187 12.3895 42.0226 12.8106 41.6934 13.1505ZM43.3453 9.09485C42.5619 8.33677 41.5968 7.95752 40.45 7.95752H36.0049V19.4364H38.355V15.818H40.45C41.5968 15.818 42.5619 15.4392 43.3453 14.6808C44.1287 13.9228 44.5205 12.9917 44.5205 11.8877C44.5205 10.784 44.1287 9.85317 43.3453 9.09485ZM49.1957 11.2286C48.7242 11.4961 48.3864 11.8978 48.1822 12.4329V10.8274H45.9851V19.4365H48.1822V15.4393C48.1822 14.6364 48.4462 14.0623 48.9742 13.7165C49.502 13.3714 50.1007 13.2373 50.7708 13.3152V10.8274C50.1917 10.8274 49.6663 10.961 49.1957 11.2286ZM54.2792 16.7462C54.7042 17.17 55.2374 17.382 55.8784 17.382C56.519 17.382 57.0551 17.17 57.486 16.7462C57.9169 16.322 58.1322 15.784 58.1322 15.132C58.1322 14.4799 57.9169 13.9416 57.486 13.5175C57.0551 13.0936 56.519 12.8819 55.8784 12.8819C55.2374 12.8819 54.7042 13.0936 54.2792 13.5175C53.8537 13.9416 53.641 14.4799 53.641 15.132C53.641 15.784 53.8537 16.322 54.2792 16.7462ZM58.9942 18.1892C58.1431 19.0206 57.1048 19.4365 55.8784 19.4365C54.652 19.4365 53.6162 19.0206 52.771 18.1892C51.9258 17.3573 51.5033 16.3384 51.5033 15.132C51.5033 13.9252 51.9258 12.906 52.771 12.0745C53.6162 11.2432 54.652 10.8274 55.8784 10.8274C57.1048 10.8274 58.1431 11.2432 58.9942 12.0745C59.8447 12.906 60.27 13.9252 60.27 15.132C60.27 16.3384 59.8447 17.3573 58.9942 18.1892ZM64.7004 12.9012H66.6247V10.8274H64.7004V8.73285L62.5034 9.39237V10.8274H61.0217V12.9012H62.5034V16.5582C62.5034 17.7068 62.8125 18.5042 63.4314 18.9499C64.0501 19.3956 65.1147 19.5352 66.6247 19.3678V17.4112C66.2046 17.4338 65.8525 17.4365 65.5689 17.4196C65.2851 17.403 65.0692 17.3276 64.9217 17.1939C64.7742 17.06 64.7004 16.8482 64.7004 16.5582V12.9012ZM70.1332 16.7462C70.5582 17.17 71.0915 17.382 71.7324 17.382C72.3731 17.382 72.9092 17.17 73.34 16.7462C73.7708 16.322 73.9863 15.784 73.9863 15.132C73.9863 14.4799 73.7708 13.9416 73.34 13.5175C72.9092 13.0936 72.3731 12.8819 71.7324 12.8819C71.0915 12.8819 70.5582 13.0936 70.1332 13.5175C69.7077 13.9416 69.495 14.4799 69.495 15.132C69.495 15.784 69.7077 16.322 70.1332 16.7462ZM74.8482 18.1892C73.9971 19.0206 72.9588 19.4364 71.7324 19.4364C70.506 19.4364 69.4702 19.0206 68.625 18.1892C67.7798 17.3573 67.3572 16.3384 67.3572 15.132C67.3572 13.9252 67.7798 12.906 68.625 12.0745C69.4702 11.2432 70.506 10.8274 71.7324 10.8274C72.9588 10.8274 73.9971 11.2432 74.8482 12.0745C75.6988 12.906 76.1241 13.9252 76.1241 15.132C76.1241 16.3384 75.6988 17.3573 74.8482 18.1892ZM83.2768 13.1505C82.948 13.4908 82.5336 13.6607 82.0336 13.6607H79.939V10.115H82.0336C82.5336 10.115 82.948 10.2823 83.2768 10.6168C83.6064 10.9512 83.7712 11.3751 83.7712 11.8877C83.7712 12.3895 83.6064 12.8106 83.2768 13.1505ZM84.9288 9.09485C84.1456 8.33677 83.1808 7.95752 82.0336 7.95752H77.5886V19.4364H79.939V15.818H82.0336C83.1808 15.818 84.1456 15.4392 84.9288 14.6808C85.7128 13.9228 86.104 12.9917 86.104 11.8877C86.104 10.784 85.7128 9.85317 84.9288 9.09485ZM87.5696 19.4364H89.7664V12.2624H87.5696V19.4364ZM88.648 10.8272C88.2552 10.8272 87.916 10.686 87.628 10.4029C87.34 10.1205 87.196 9.78677 87.196 9.40125C87.196 9.01645 87.34 8.67949 87.628 8.39053C87.916 8.10187 88.2552 7.95752 88.648 7.95752C89.052 7.95752 89.3984 8.10187 89.6864 8.39053C89.9744 8.67949 90.1184 9.01645 90.1184 9.40125C90.1184 9.78677 89.9744 10.1205 89.6864 10.4029C89.3984 10.686 89.052 10.8272 88.648 10.8272ZM97.8128 14.3656H93.4888C93.6128 13.8437 93.8664 13.4388 94.252 13.1508C94.636 12.8632 95.1224 12.7188 95.7104 12.7188C96.2072 12.7188 96.6512 12.8549 97.0408 13.1265C97.4312 13.3983 97.688 13.8111 97.8128 14.3656ZM99.576 17.6918C99.576 17.6918 99.6336 17.6128 99.7064 17.5037C99.7064 17.5037 98.2696 17.0712 97.6584 16.8885C97.236 17.3156 96.6544 17.5288 95.9128 17.5288C94.6128 17.5288 93.816 17.0179 93.5224 15.996H99.916C99.9712 15.6919 100 15.4036 100 15.132C100 13.9147 99.596 12.8928 98.788 12.0665C97.98 11.2405 96.9536 10.8274 95.7104 10.8274C94.3984 10.8274 93.324 11.238 92.488 12.0584C91.6512 12.8792 91.2336 13.9038 91.2336 15.132C91.2336 16.3711 91.6568 17.3984 92.5048 18.2136C93.3528 19.0288 94.4776 19.4365 95.88 19.4365C97.5072 19.4365 98.74 18.8551 99.576 17.6918Z" fill="#95989D"/>
<path d="M17.6991 0.285156H10.079C4.55605 0.285156 0.0788574 4.66923 0.0788574 10.0773V17.5389C0.0788574 22.9469 4.55605 27.3309 10.079 27.3309H17.6991C23.2219 27.3309 27.6991 22.9469 27.6991 17.5389V10.0773C27.6991 4.66923 23.2219 0.285156 17.6991 0.285156Z" fill="url(#paint0_linear_123_691)" stroke="#D8DBE3" stroke-width="0.170081"/>
<g filter="url(#filter0_dd_123_691)">
<g filter="url(#filter1_ii_123_691)">
<path fill-rule="evenodd" clip-rule="evenodd" d="M13.9159 20.3297V23.0484C13.4572 23.0484 13.0411 22.8697 12.7351 22.5801C12.734 22.5801 12.734 22.5801 12.734 22.5792L12.5047 22.3109L4.99719 13.561C4.99227 13.5587 4.98872 13.5539 4.98618 13.549L4.95587 13.5147C4.95351 13.5121 4.95213 13.5097 4.94996 13.5073C4.91337 13.4586 4.88188 13.4061 4.86122 13.3489C4.83329 13.281 4.81755 13.2072 4.81519 13.1309V13.0857C4.81519 13.0715 4.81636 13.057 4.81891 13.0426C4.8321 12.8928 4.89762 12.759 4.99719 12.6543C5.11977 12.5245 5.29685 12.4424 5.49204 12.4424H7.14625L13.9147 20.3308L13.9159 20.3297Z" fill="url(#paint1_linear_123_691)"/>
<path fill-rule="evenodd" clip-rule="evenodd" d="M13.9159 20.3297V23.0484C13.4572 23.0484 13.0411 22.8697 12.7351 22.5801C12.734 22.5801 12.734 22.5801 12.734 22.5792L12.5047 22.3109L4.99719 13.561C4.99227 13.5587 4.98872 13.5539 4.98618 13.549L4.95587 13.5147C4.95351 13.5121 4.95213 13.5097 4.94996 13.5073C4.91337 13.4586 4.88188 13.4061 4.86122 13.3489C4.83329 13.281 4.81755 13.2072 4.81519 13.1309V13.0857C4.81519 13.0715 4.81636 13.057 4.81891 13.0426C4.8321 12.8928 4.89762 12.759 4.99719 12.6543C5.11977 12.5245 5.29685 12.4424 5.49204 12.4424H7.14625L13.9147 20.3308L13.9159 20.3297Z" fill="url(#paint2_linear_123_691)"/>
</g>
<g filter="url(#filter2_ii_123_691)">
<path fill-rule="evenodd" clip-rule="evenodd" d="M13.9159 20.3297V23.0484C13.4572 23.0484 13.0411 22.8697 12.7351 22.5801C12.734 22.5801 12.734 22.5801 12.734 22.5792L12.5047 22.3109L6.90343 15.7832L4.99719 13.561C4.99227 13.5587 4.98872 13.5539 4.98618 13.549L4.95587 13.5147C4.95351 13.5121 4.95213 13.5097 4.94996 13.5073C4.91337 13.4586 4.88188 13.4061 4.86122 13.3489C4.83329 13.281 4.81755 13.2072 4.81519 13.1309V13.0857C4.81519 13.0715 4.81636 13.057 4.81891 13.0426C4.8321 12.8928 4.89762 12.759 4.99719 12.6543C5.11977 12.5245 5.29685 12.4424 5.49204 12.4424H7.14625L7.92406 13.3489L10.0123 15.7832L13.4364 19.7733L13.9147 20.3308L13.9159 20.3297Z" fill="url(#paint3_linear_123_691)" fill-opacity="0.4"/>
</g>
<g filter="url(#filter3_ii_123_691)">
<path fill-rule="evenodd" clip-rule="evenodd" d="M13.9159 16.7183V20.3482L13.9147 20.3494L4.98459 9.96995C4.97555 9.96003 4.96649 9.94891 4.95744 9.93755C4.91771 9.88771 4.88464 9.83195 4.86063 9.77043C4.83348 9.70267 4.81755 9.62899 4.81519 9.55115V9.50643C4.81971 9.34051 4.88799 9.19115 4.99719 9.07771C5.11899 8.94603 5.29627 8.86475 5.49204 8.86475H7.15983L13.9159 16.7183Z" fill="url(#paint4_linear_123_691)"/>
<path fill-rule="evenodd" clip-rule="evenodd" d="M13.9159 16.7183V20.3482L13.9147 20.3494L4.98459 9.96995C4.97555 9.96003 4.96649 9.94891 4.95744 9.93755C4.91771 9.88771 4.88464 9.83195 4.86063 9.77043C4.83348 9.70267 4.81755 9.62899 4.81519 9.55115V9.50643C4.81971 9.34051 4.88799 9.19115 4.99719 9.07771C5.11899 8.94603 5.29627 8.86475 5.49204 8.86475H7.15983L13.9159 16.7183Z" fill="url(#paint5_linear_123_691)"/>
</g>
<g filter="url(#filter4_ii_123_691)">
<path fill-rule="evenodd" clip-rule="evenodd" d="M13.9159 16.7183V20.3482L13.9147 20.3494L13.437 19.7933L10.0129 15.8138L7.92425 13.3859L7.14625 12.4813L4.98459 9.96995C4.97555 9.96003 4.96649 9.94891 4.95744 9.93755C4.91771 9.88771 4.88464 9.83195 4.86063 9.77043C4.83348 9.70267 4.81755 9.62899 4.81519 9.55115V9.50643C4.81971 9.34051 4.88799 9.19115 4.99719 9.07771C5.11899 8.94603 5.29627 8.86475 5.49204 8.86475H7.15983L7.93901 9.77043L10.2712 12.4813L11.0491 13.3859L13.1378 15.8138L13.9159 16.7183Z" fill="url(#paint6_linear_123_691)" fill-opacity="0.3"/>
</g>
<g filter="url(#filter5_ii_123_691)">
<path fill-rule="evenodd" clip-rule="evenodd" d="M5.4635 5.2251C5.26852 5.2251 5.08985 5.30564 4.96865 5.43763C4.85944 5.54937 4.79155 5.7014 4.78662 5.86671V5.91064C4.78879 5.98906 4.80453 6.06266 4.83267 6.13029C4.83385 6.13627 4.83641 6.14107 4.83858 6.14704C4.86061 6.19811 4.88836 6.24551 4.92359 6.28963C4.93559 6.30639 4.94916 6.32181 4.96372 6.33587C4.96608 6.33954 4.96962 6.343 4.97337 6.34667L13.8872 16.7067V23.0481C13.9299 23.0481 13.9713 23.0471 14.0123 23.0434C14.4213 23.0152 14.7902 22.8439 15.0681 22.5813C15.0694 22.5813 15.0694 22.5813 15.0694 22.5799L15.2987 22.3127L22.8172 13.5734C22.8269 13.5639 22.8354 13.5531 22.844 13.5425C22.8852 13.4926 22.9179 13.4366 22.9421 13.3749C22.9725 13.3013 22.9883 13.2206 22.9883 13.1348V5.8881C22.9883 5.71334 22.919 5.55284 22.8051 5.43647C22.6825 5.30564 22.5064 5.2251 22.3099 5.2251H5.4635Z" fill="url(#paint7_linear_123_691)"/>
<path fill-rule="evenodd" clip-rule="evenodd" d="M5.4635 5.2251C5.26852 5.2251 5.08985 5.30564 4.96865 5.43763C4.85944 5.54937 4.79155 5.7014 4.78662 5.86671V5.91064C4.78879 5.98906 4.80453 6.06266 4.83267 6.13029C4.83385 6.13627 4.83641 6.14107 4.83858 6.14704C4.86061 6.19811 4.88836 6.24551 4.92359 6.28963C4.93559 6.30639 4.94916 6.32181 4.96372 6.33587C4.96608 6.33954 4.96962 6.343 4.97337 6.34667L13.8872 16.7067V23.0481C13.9299 23.0481 13.9713 23.0471 14.0123 23.0434C14.4213 23.0152 14.7902 22.8439 15.0681 22.5813C15.0694 22.5813 15.0694 22.5813 15.0694 22.5799L15.2987 22.3127L22.8172 13.5734C22.8269 13.5639 22.8354 13.5531 22.844 13.5425C22.8852 13.4926 22.9179 13.4366 22.9421 13.3749C22.9725 13.3013 22.9883 13.2206 22.9883 13.1348V5.8881C22.9883 5.71334 22.919 5.55284 22.8051 5.43647C22.6825 5.30564 22.5064 5.2251 22.3099 5.2251H5.4635Z" fill="url(#paint8_linear_123_691)"/>
<path fill-rule="evenodd" clip-rule="evenodd" d="M5.4635 5.2251C5.26852 5.2251 5.08985 5.30564 4.96865 5.43763C4.85944 5.54937 4.79155 5.7014 4.78662 5.86671V5.91064C4.78879 5.98906 4.80453 6.06266 4.83267 6.13029C4.83385 6.13627 4.83641 6.14107 4.83858 6.14704C4.86061 6.19811 4.88836 6.24551 4.92359 6.28963C4.93559 6.30639 4.94916 6.32181 4.96372 6.33587C4.96608 6.33954 4.96962 6.343 4.97337 6.34667L13.8872 16.7067V23.0481C13.9299 23.0481 13.9713 23.0471 14.0123 23.0434C14.4213 23.0152 14.7902 22.8439 15.0681 22.5813C15.0694 22.5813 15.0694 22.5813 15.0694 22.5799L15.2987 22.3127L22.8172 13.5734C22.8269 13.5639 22.8354 13.5531 22.844 13.5425C22.8852 13.4926 22.9179 13.4366 22.9421 13.3749C22.9725 13.3013 22.9883 13.2206 22.9883 13.1348V5.8881C22.9883 5.71334 22.919 5.55284 22.8051 5.43647C22.6825 5.30564 22.5064 5.2251 22.3099 5.2251H5.4635Z" fill="url(#paint9_linear_123_691)"/>
<path fill-rule="evenodd" clip-rule="evenodd" d="M5.4635 5.2251C5.26852 5.2251 5.08985 5.30564 4.96865 5.43763C4.85944 5.54937 4.79155 5.7014 4.78662 5.86671V5.91064C4.78879 5.98906 4.80453 6.06266 4.83267 6.13029C4.83385 6.13627 4.83641 6.14107 4.83858 6.14704C4.86061 6.19811 4.88836 6.24551 4.92359 6.28963C4.93559 6.30639 4.94916 6.32181 4.96372 6.33587C4.96608 6.33954 4.96962 6.343 4.97337 6.34667L13.8872 16.7067V23.0481C13.9299 23.0481 13.9713 23.0471 14.0123 23.0434C14.4213 23.0152 14.7902 22.8439 15.0681 22.5813C15.0694 22.5813 15.0694 22.5813 15.0694 22.5799L15.2987 22.3127L22.8172 13.5734C22.8269 13.5639 22.8354 13.5531 22.844 13.5425C22.8852 13.4926 22.9179 13.4366 22.9421 13.3749C22.9725 13.3013 22.9883 13.2206 22.9883 13.1348V5.8881C22.9883 5.71334 22.919 5.55284 22.8051 5.43647C22.6825 5.30564 22.5064 5.2251 22.3099 5.2251H5.4635Z" fill="url(#paint10_linear_123_691)"/>
<path fill-rule="evenodd" clip-rule="evenodd" d="M5.4635 5.2251C5.26852 5.2251 5.08985 5.30564 4.96865 5.43763C4.85944 5.54937 4.79155 5.7014 4.78662 5.86671V5.91064C4.78879 5.98906 4.80453 6.06266 4.83267 6.13029C4.83385 6.13627 4.83641 6.14107 4.83858 6.14704C4.86061 6.19811 4.88836 6.24551 4.92359 6.28963C4.93559 6.30639 4.94916 6.32181 4.96372 6.33587C4.96608 6.33954 4.96962 6.343 4.97337 6.34667L13.8872 16.7067V23.0481C13.9299 23.0481 13.9713 23.0471 14.0123 23.0434C14.4213 23.0152 14.7902 22.8439 15.0681 22.5813C15.0694 22.5813 15.0694 22.5813 15.0694 22.5799L15.2987 22.3127L22.8172 13.5734C22.8269 13.5639 22.8354 13.5531 22.844 13.5425C22.8852 13.4926 22.9179 13.4366 22.9421 13.3749C22.9725 13.3013 22.9883 13.2206 22.9883 13.1348V5.8881C22.9883 5.71334 22.919 5.55284 22.8051 5.43647C22.6825 5.30564 22.5064 5.2251 22.3099 5.2251H5.4635Z" fill="url(#paint11_linear_123_691)"/>
<path fill-rule="evenodd" clip-rule="evenodd" d="M5.4635 5.2251C5.26852 5.2251 5.08985 5.30564 4.96865 5.43763C4.85944 5.54937 4.79155 5.7014 4.78662 5.86671V5.91064C4.78879 5.98906 4.80453 6.06266 4.83267 6.13029C4.83385 6.13627 4.83641 6.14107 4.83858 6.14704C4.86061 6.19811 4.88836 6.24551 4.92359 6.28963C4.93559 6.30639 4.94916 6.32181 4.96372 6.33587C4.96608 6.33954 4.96962 6.343 4.97337 6.34667L13.8872 16.7067V23.0481C13.9299 23.0481 13.9713 23.0471 14.0123 23.0434C14.4213 23.0152 14.7902 22.8439 15.0681 22.5813C15.0694 22.5813 15.0694 22.5813 15.0694 22.5799L15.2987 22.3127L22.8172 13.5734C22.8269 13.5639 22.8354 13.5531 22.844 13.5425C22.8852 13.4926 22.9179 13.4366 22.9421 13.3749C22.9725 13.3013 22.9883 13.2206 22.9883 13.1348V5.8881C22.9883 5.71334 22.919 5.55284 22.8051 5.43647C22.6825 5.30564 22.5064 5.2251 22.3099 5.2251H5.4635Z" fill="url(#paint12_linear_123_691)"/>
</g>
</g>
</g>
<defs>
<filter id="filter0_dd_123_691" x="2.23058" y="3.27764" width="25.0178" height="24.6394" filterUnits="userSpaceOnUse" color-interpolation-filters="sRGB">
<feFlood flood-opacity="0" result="BackgroundImageFix"/>
<feColorMatrix in="SourceAlpha" type="matrix" values="0 0 0 0 0 0 0 0 0 0 0 0 0 0 0 0 0 0 127 0" result="hardAlpha"/>
<feOffset dx="0.852015" dy="1.4606"/>
<feGaussianBlur stdDeviation="1.70403"/>
<feColorMatrix type="matrix" values="0 0 0 0 1 0 0 0 0 0.875 0 0 0 0 0.843 0 0 0 0.63 0"/>
<feBlend mode="normal" in2="BackgroundImageFix" result="effect1_dropShadow_123_691"/>
<feColorMatrix in="SourceAlpha" type="matrix" values="0 0 0 0 0 0 0 0 0 0 0 0 0 0 0 0 0 0 127 0" result="hardAlpha"/>
<feOffset dx="0.365149" dy="0.730298"/>
<feGaussianBlur stdDeviation="1.21716"/>
<feColorMatrix type="matrix" values="0 0 0 0 0.771137 0 0 0 0 0.469437 0 0 0 0 0.40806 0 0 0 0.3 0"/>
<feBlend mode="normal" in2="effect1_dropShadow_123_691" result="effect2_dropShadow_123_691"/>
<feBlend mode="normal" in="SourceGraphic" in2="effect2_dropShadow_123_691" result="shape"/>
</filter>
<filter id="filter1_ii_123_691" x="4.81519" y="12.4424" width="11.9003" height="14.7443" filterUnits="userSpaceOnUse" color-interpolation-filters="sRGB">
<feFlood flood-opacity="0" result="BackgroundImageFix"/>
<feBlend mode="normal" in="SourceGraphic" in2="BackgroundImageFix" result="shape"/>
<feColorMatrix in="SourceAlpha" type="matrix" values="0 0 0 0 0 0 0 0 0 0 0 0 0 0 0 0 0 0 127 0" result="hardAlpha"/>
<feOffset dx="2.79947" dy="6.93784"/>
<feGaussianBlur stdDeviation="2.06918"/>
<feComposite in2="hardAlpha" operator="arithmetic" k2="-1" k3="1"/>
<feColorMatrix type="matrix" values="0 0 0 0 1 0 0 0 0 0.651 0 0 0 0 0.58 0 0 0 1 0"/>
<feBlend mode="normal" in2="shape" result="effect1_innerShadow_123_691"/>
<feColorMatrix in="SourceAlpha" type="matrix" values="0 0 0 0 0 0 0 0 0 0 0 0 0 0 0 0 0 0 127 0" result="hardAlpha"/>
<feOffset dx="-2.24069" dy="14.7885"/>
<feGaussianBlur stdDeviation="2.01663"/>
<feComposite in2="hardAlpha" operator="arithmetic" k2="-1" k3="1"/>
<feColorMatrix type="matrix" values="0 0 0 0 1 0 0 0 0 0.875 0 0 0 0 0.843 0 0 0 0.48 0"/>
<feBlend mode="normal" in2="effect1_innerShadow_123_691" result="effect2_innerShadow_123_691"/>
</filter>
<filter id="filter2_ii_123_691" x="4.81519" y="11.1035" width="10.6831" height="11.9448" filterUnits="userSpaceOnUse" color-interpolation-filters="sRGB">
<feFlood flood-opacity="0" result="BackgroundImageFix"/>
<feBlend mode="normal" in="SourceGraphic" in2="BackgroundImageFix" result="shape"/>
<feColorMatrix in="SourceAlpha" type="matrix" values="0 0 0 0 0 0 0 0 0 0 0 0 0 0 0 0 0 0 127 0" result="hardAlpha"/>
<feOffset dx="0.121716" dy="-1.4606"/>
<feGaussianBlur stdDeviation="0.547724"/>
<feComposite in2="hardAlpha" operator="arithmetic" k2="-1" k3="1"/>
<feColorMatrix type="matrix" values="0 0 0 0 1 0 0 0 0 0.604589 0 0 0 0 0.591667 0 0 0 0.2 0"/>
<feBlend mode="multiply" in2="shape" result="effect1_innerShadow_123_691"/>
<feColorMatrix in="SourceAlpha" type="matrix" values="0 0 0 0 0 0 0 0 0 0 0 0 0 0 0 0 0 0 127 0" result="hardAlpha"/>
<feOffset dx="1.58231" dy="-1.33888"/>
<feGaussianBlur stdDeviation="0.791157"/>
<feComposite in2="hardAlpha" operator="arithmetic" k2="-1" k3="1"/>
<feColorMatrix type="matrix" values="0 0 0 0 1 0 0 0 0 1 0 0 0 0 1 0 0 0 0.3 0"/>
<feBlend mode="normal" in2="effect1_innerShadow_123_691" result="effect2_innerShadow_123_691"/>
</filter>
<filter id="filter3_ii_123_691" x="2.5745" y="8.86475" width="14.141" height="15.6232" filterUnits="userSpaceOnUse" color-interpolation-filters="sRGB">
<feFlood flood-opacity="0" result="BackgroundImageFix"/>
<feBlend mode="normal" in="SourceGraphic" in2="BackgroundImageFix" result="shape"/>
<feColorMatrix in="SourceAlpha" type="matrix" values="0 0 0 0 0 0 0 0 0 0 0 0 0 0 0 0 0 0 127 0" result="hardAlpha"/>
<feOffset dx="2.79947" dy="6.93784"/>
<feGaussianBlur stdDeviation="2.06918"/>
<feComposite in2="hardAlpha" operator="arithmetic" k2="-1" k3="1"/>
<feColorMatrix type="matrix" values="0 0 0 0 1 0 0 0 0 0.651 0 0 0 0 0.58 0 0 0 1 0"/>
<feBlend mode="normal" in2="shape" result="effect1_innerShadow_123_691"/>
<feColorMatrix in="SourceAlpha" type="matrix" values="0 0 0 0 0 0 0 0 0 0 0 0 0 0 0 0 0 0 127 0" result="hardAlpha"/>
<feOffset dx="-2.24069" dy="14.7885"/>
<feGaussianBlur stdDeviation="2.01663"/>
<feComposite in2="hardAlpha" operator="arithmetic" k2="-1" k3="1"/>
<feColorMatrix type="matrix" values="0 0 0 0 1 0 0 0 0 0.875 0 0 0 0 0.843 0 0 0 0.48 0"/>
<feBlend mode="normal" in2="effect1_innerShadow_123_691" result="effect2_innerShadow_123_691"/>
</filter>
<filter id="filter4_ii_123_691" x="4.81519" y="8.62131" width="9.95285" height="12.0934" filterUnits="userSpaceOnUse" color-interpolation-filters="sRGB">
<feFlood flood-opacity="0" result="BackgroundImageFix"/>
<feBlend mode="normal" in="SourceGraphic" in2="BackgroundImageFix" result="shape"/>
<feColorMatrix in="SourceAlpha" type="matrix" values="0 0 0 0 0 0 0 0 0 0 0 0 0 0 0 0 0 0 127 0" result="hardAlpha"/>
<feOffset dx="0.365149" dy="-0.243433"/>
<feGaussianBlur stdDeviation="0.912873"/>
<feComposite in2="hardAlpha" operator="arithmetic" k2="-1" k3="1"/>
<feColorMatrix type="matrix" values="0 0 0 0 0.996078 0 0 0 0 0.458823 0 0 0 0 0.411765 0 0 0 0.5 0"/>
<feBlend mode="normal" in2="shape" result="effect1_innerShadow_123_691"/>
<feColorMatrix in="SourceAlpha" type="matrix" values="0 0 0 0 0 0 0 0 0 0 0 0 0 0 0 0 0 0 127 0" result="hardAlpha"/>
<feOffset dx="1.94746" dy="0.365149"/>
<feGaussianBlur stdDeviation="0.426008"/>
<feComposite in2="hardAlpha" operator="arithmetic" k2="-1" k3="1"/>
<feColorMatrix type="matrix" values="0 0 0 0 1 0 0 0 0 1 0 0 0 0 1 0 0 0 0.08 0"/>
<feBlend mode="normal" in2="effect1_innerShadow_123_691" result="effect2_innerShadow_123_691"/>
</filter>
<filter id="filter5_ii_123_691" x="2.35277" y="3.40014" width="20.6355" height="21.2295" filterUnits="userSpaceOnUse" color-interpolation-filters="sRGB">
<feFlood flood-opacity="0" result="BackgroundImageFix"/>
<feBlend mode="normal" in="SourceGraphic" in2="BackgroundImageFix" result="shape"/>
<feColorMatrix in="SourceAlpha" type="matrix" values="0 0 0 0 0 0 0 0 0 0 0 0 0 0 0 0 0 0 127 0" result="hardAlpha"/>
<feOffset dx="-2.43385" dy="-1.82496"/>
<feGaussianBlur stdDeviation="1.76459"/>
<feComposite in2="hardAlpha" operator="arithmetic" k2="-1" k3="1"/>
<feColorMatrix type="matrix" values="0 0 0 0 0 0 0 0 0 0 0 0 0 0 0 0 0 0 0.1 0"/>
<feBlend mode="hard-light" in2="shape" result="effect1_innerShadow_123_691"/>
<feColorMatrix in="SourceAlpha" type="matrix" values="0 0 0 0 0 0 0 0 0 0 0 0 0 0 0 0 0 0 127 0" result="hardAlpha"/>
<feOffset dx="-0.243215" dy="1.58175"/>
<feGaussianBlur stdDeviation="1.52137"/>
<feComposite in2="hardAlpha" operator="arithmetic" k2="-1" k3="1"/>
<feColorMatrix type="matrix" values="0 0 0 0 1 0 0 0 0 0.87451 0 0 0 0 0.843137 0 0 0 0.7 0"/>
<feBlend mode="soft-light" in2="effect1_innerShadow_123_691" result="effect2_innerShadow_123_691"/>
</filter>
<linearGradient id="paint0_linear_123_691" x1="13.889" y1="0.208053" x2="13.889" y2="27.4081" gradientUnits="userSpaceOnUse">
<stop stop-color="white"/>
<stop offset="1" stop-color="#F6F8FC"/>
</linearGradient>
<linearGradient id="paint1_linear_123_691" x1="10.2806" y1="15.5123" x2="8.72305" y2="16.7605" gradientUnits="userSpaceOnUse">
<stop stop-color="#FFA794" stop-opacity="0.3"/>
<stop offset="1" stop-color="#FF9794"/>
</linearGradient>
<linearGradient id="paint2_linear_123_691" x1="10.2806" y1="15.5123" x2="8.72305" y2="16.7605" gradientUnits="userSpaceOnUse">
<stop stop-color="#FFA794" stop-opacity="0.3"/>
<stop offset="1" stop-color="#FF9794"/>
</linearGradient>
<linearGradient id="paint3_linear_123_691" x1="10.1458" y1="19.4507" x2="11.8119" y2="17.9302" gradientUnits="userSpaceOnUse">
<stop stop-color="#FFDFD7"/>
<stop offset="1" stop-color="#FFDFD7"/>
</linearGradient>
<linearGradient id="paint4_linear_123_691" x1="10.2806" y1="12.189" x2="8.56209" y2="13.9419" gradientUnits="userSpaceOnUse">
<stop stop-color="#FFA794" stop-opacity="0.3"/>
<stop offset="1" stop-color="#FF9794"/>
</linearGradient>
<linearGradient id="paint5_linear_123_691" x1="10.2806" y1="12.189" x2="8.56209" y2="13.9419" gradientUnits="userSpaceOnUse">
<stop stop-color="#FFA794" stop-opacity="0.3"/>
<stop offset="1" stop-color="#FF9794"/>
</linearGradient>
<linearGradient id="paint6_linear_123_691" x1="10.6514" y1="16.3807" x2="12.3996" y2="14.5616" gradientUnits="userSpaceOnUse">
<stop stop-color="#FFA694"/>
<stop offset="1" stop-color="#FFB7A9"/>
</linearGradient>
<linearGradient id="paint7_linear_123_691" x1="19.8199" y1="17.1402" x2="7.68445" y2="8.61713" gradientUnits="userSpaceOnUse">
<stop stop-color="#FF6661"/>
<stop offset="1" stop-color="#FF7D73"/>
</linearGradient>
<linearGradient id="paint8_linear_123_691" x1="19.8199" y1="17.1402" x2="7.68445" y2="8.61713" gradientUnits="userSpaceOnUse">
<stop stop-color="#FF6661"/>
<stop offset="1" stop-color="#FF7D73"/>
</linearGradient>
<linearGradient id="paint9_linear_123_691" x1="19.8199" y1="17.1402" x2="7.68445" y2="8.61713" gradientUnits="userSpaceOnUse">
<stop stop-color="#FF6661"/>
<stop offset="1" stop-color="#FF7D73"/>
</linearGradient>
<linearGradient id="paint10_linear_123_691" x1="19.8199" y1="17.1402" x2="7.68445" y2="8.61713" gradientUnits="userSpaceOnUse">
<stop stop-color="#FF6661"/>
<stop offset="1" stop-color="#FF7D73"/>
</linearGradient>
<linearGradient id="paint11_linear_123_691" x1="19.8199" y1="17.1402" x2="7.68445" y2="8.61713" gradientUnits="userSpaceOnUse">
<stop stop-color="#FF6661"/>
<stop offset="1" stop-color="#FF7D73"/>
</linearGradient>
<linearGradient id="paint12_linear_123_691" x1="19.8199" y1="17.1402" x2="7.68445" y2="8.61713" gradientUnits="userSpaceOnUse">
<stop stop-color="#FF6661"/>
<stop offset="1" stop-color="#FF7D73"/>
</linearGradient>
<clipPath id="clip0_123_691">
<rect width="100" height="27.2" fill="white" transform="translate(0 0.208008)"/>
</clipPath>
</defs>
</svg>
