<svg width="100" height="24" viewBox="0 0 100 24" fill="none" xmlns="http://www.w3.org/2000/svg">
<g clip-path="url(#clip0_123_692)">
<path d="M50.107 6.17516C46.2201 6.17516 43.4175 8.71009 43.4175 12.5125C43.4175 16.3149 46.5687 18.8498 50.4592 18.8498C52.8073 18.8498 54.8776 17.9203 56.1591 16.3536L53.4658 14.7974C52.7546 15.5755 51.6737 16.0297 50.4592 16.0297C48.7726 16.0297 47.3398 15.1495 46.808 13.7412H56.6733C56.7506 13.3469 56.7965 12.9385 56.7965 12.509C56.7965 8.71009 53.9975 6.17516 50.107 6.17516ZM46.7799 11.2802C47.2199 9.87545 48.4241 8.99174 50.107 8.99174C51.7934 8.99174 52.9975 9.87545 53.4342 11.2802H46.7799ZM45.9842 2.30236L36.2283 19.2019L26.4689 2.30236H30.1269L36.2249 12.8645L42.3227 2.30236H45.9842ZM13.0091 0.541992L26.0182 23.0747H0L13.0091 0.541992ZM70.9498 12.5125C70.9498 14.6249 72.3299 16.0332 74.4705 16.0332C75.9211 16.0332 77.009 15.3748 77.5687 14.301L80.2726 15.8607C79.153 17.7267 77.0547 18.8498 74.4705 18.8498C70.58 18.8498 67.7812 16.3149 67.7812 12.5125C67.7812 8.71009 70.5836 6.17516 74.4705 6.17516C77.0547 6.17516 79.1496 7.29828 80.2726 9.16426L77.5687 10.7239C77.009 9.65013 75.9211 8.99174 74.4705 8.99174C72.3335 8.99174 70.9498 10.4 70.9498 12.5125ZM99.9887 2.30236V18.4977H96.8202V2.30236H99.9887ZM88.0182 6.17516C84.1314 6.17516 81.329 8.71009 81.329 12.5125C81.329 16.3149 84.4835 18.8498 88.3704 18.8498C90.7186 18.8498 92.7889 17.9203 94.0703 16.3536L91.377 14.7974C90.6658 15.5755 89.5849 16.0297 88.3704 16.0297C86.6839 16.0297 85.251 15.1495 84.7192 13.7412H94.5845C94.6618 13.3469 94.7075 12.9385 94.7075 12.509C94.7075 8.71009 91.9087 6.17516 88.0182 6.17516ZM84.6911 11.2802C85.1314 9.87545 86.3319 8.99174 88.0182 8.99174C89.7046 8.99174 90.9087 9.87545 91.3454 11.2802H84.6911ZM66.7249 6.52723V9.93882C66.3729 9.83672 65.9995 9.7663 65.5982 9.7663C63.5527 9.7663 62.0775 11.1746 62.0775 13.287V18.4977H58.909V6.52723H62.0775V9.7663C62.0775 7.97777 64.1582 6.52723 66.7249 6.52723Z" fill="white"/>
</g>
<defs>
<clipPath id="clip0_123_692">
<rect width="100" height="22.5327" fill="white" transform="translate(0 0.541992)"/>
</clipPath>
</defs>
</svg>
