<svg width="521" height="453" viewBox="0 0 521 453" fill="none" xmlns="http://www.w3.org/2000/svg">
<path opacity="0.5" d="M1 227.094L0.564804 226.848L0.425179 227.095L0.565361 227.341L1 227.094ZM128.896 1V0.5H128.604L128.46 0.753821L128.896 1ZM128.896 452L128.461 452.247L128.605 452.5H128.896V452ZM274.213 452V452.5H275.083L274.645 451.748L274.213 452ZM143.15 227.094L142.716 226.846L142.573 227.096L142.718 227.346L143.15 227.094ZM189.082 146.714L189.514 146.462L189.078 145.713L188.648 146.466L189.082 146.714ZM366.868 452L366.436 452.252L366.581 452.5H366.868V452ZM392.606 452V452.5H392.898L393.041 452.246L392.606 452ZM519.709 227.094L520.145 227.34L520.283 227.095L520.145 226.849L519.709 227.094ZM392.606 1L393.042 0.754978L392.898 0.5H392.606V1ZM248.872 1V0.5H248.017L248.436 1.24502L248.872 1ZM375.975 227.094L376.415 227.332L376.546 227.089L376.411 226.849L375.975 227.094ZM333.608 305.494L333.176 305.746L333.624 306.516L334.047 305.732L333.608 305.494ZM156.217 1L156.649 0.748309L156.504 0.5H156.217V1ZM366.868 42.9722L367.301 42.7218L367.157 42.4722H366.868V42.9722ZM318.165 42.9722V42.4722H317.303L317.731 43.2204L318.165 42.9722ZM473.382 227.094L473.813 227.348L473.961 227.096L473.815 226.844L473.382 227.094ZM375.975 392.606L375.546 392.862L375.978 393.587L376.406 392.86L375.975 392.606ZM351.426 351.426L350.993 351.175L350.846 351.43L350.996 351.682L351.426 351.426ZM423.491 227.094L423.923 227.345L424.068 227.096L423.925 226.846L423.491 227.094ZM49.7032 227.094L49.2691 226.846L49.1261 227.096L49.2708 227.345L49.7032 227.094ZM143.15 63.5621L143.584 63.3141L143.15 62.5544L142.716 63.3141L143.15 63.5621ZM156.217 410.424L155.784 410.676L155.929 410.924H156.217V410.424ZM198.585 410.424V410.924H199.436L199.021 410.181L198.585 410.424ZM96.4266 227.094L95.9937 226.844L95.8517 227.09L95.9899 227.338L96.4266 227.094ZM166.908 105.138L167.341 105.388L167.484 105.14L167.342 104.89L166.908 105.138ZM1.4352 227.34L129.331 1.24618L128.46 0.753821L0.564804 226.848L1.4352 227.34ZM129.33 451.753L1.43464 226.847L0.565361 227.341L128.461 452.247L129.33 451.753ZM274.213 451.5H128.896V452.5H274.213V451.5ZM142.718 227.346L273.781 452.252L274.645 451.748L143.582 226.842L142.718 227.346ZM188.648 146.466L142.716 226.846L143.584 227.342L189.516 146.962L188.648 146.466ZM367.3 451.748L189.514 146.462L188.65 146.965L366.436 452.252L367.3 451.748ZM392.606 451.5H366.868V452.5H392.606V451.5ZM519.274 226.848L392.17 451.754L393.041 452.246L520.145 227.34L519.274 226.848ZM392.17 1.24502L519.273 227.339L520.145 226.849L393.042 0.754978L392.17 1.24502ZM248.872 1.5H392.606V0.5H248.872V1.5ZM376.411 226.849L249.308 0.754978L248.436 1.24502L375.54 227.339L376.411 226.849ZM334.047 305.732L376.415 227.332L375.536 226.856L333.168 305.257L334.047 305.732ZM155.785 1.25169L333.176 305.746L334.04 305.243L156.649 0.748309L155.785 1.25169ZM128.896 1.5H156.217V0.5H128.896V1.5ZM366.868 42.4722H318.165V43.4722H366.868V42.4722ZM473.815 226.844L367.301 42.7218L366.435 43.2225L472.949 227.345L473.815 226.844ZM376.406 392.86L473.813 227.348L472.951 226.841L375.544 392.353L376.406 392.86ZM350.996 351.682L375.546 392.862L376.405 392.35L351.855 351.17L350.996 351.682ZM423.058 226.843L350.993 351.175L351.858 351.677L423.923 227.345L423.058 226.843ZM317.731 43.2204L423.057 227.342L423.925 226.846L318.599 42.7239L317.731 43.2204ZM50.1373 227.342L143.584 63.8102L142.716 63.3141L49.2691 226.846L50.1373 227.342ZM156.649 410.173L50.1355 226.843L49.2708 227.345L155.784 410.676L156.649 410.173ZM198.585 409.924H156.217V410.924H198.585V409.924ZM95.9899 227.338L198.148 410.668L199.021 410.181L96.8634 226.851L95.9899 227.338ZM166.475 104.888L95.9937 226.844L96.8595 227.344L167.341 105.388L166.475 104.888ZM142.716 63.8102L166.474 105.386L167.342 104.89L143.584 63.3141L142.716 63.8102Z" fill="url(#paint0_linear_26_5846)"/>
<defs>
<linearGradient id="paint0_linear_26_5846" x1="440.5" y1="5.99998" x2="66" y2="511.5" gradientUnits="userSpaceOnUse">
<stop stop-color="white" stop-opacity="0"/>
<stop offset="0.477504" stop-color="#0FD2E4"/>
<stop offset="0.542131" stop-color="#17C4FE"/>
<stop offset="0.634782" stop-color="#1048D4"/>
<stop offset="1" stop-color="white" stop-opacity="0"/>
</linearGradient>
</defs>
</svg>
