<svg width="114" height="51" viewBox="0 0 114 51" fill="none" xmlns="http://www.w3.org/2000/svg">
<path d="M3.60504 26.5371V0.463283H8.59631L23.9799 19.2364H21.5587V0.463283H27.5185V26.5371H22.5644L7.14363 7.76396H9.56477V26.5371H3.60504ZM39.2374 10.9673H51.7901V15.6606H39.2374V10.9673ZM39.6844 21.6948H53.876V26.5371H33.6874V0.463283H53.3918V5.30556H39.6844V21.6948ZM55.4428 26.5371L66.6545 11.0791V15.4744L55.927 0.463283H62.7807L70.1931 10.9301L67.325 10.9673L74.6257 0.463283H81.1814L70.5283 15.2136V10.8928L81.8146 26.5371H74.8491L67.176 15.4744H69.9324L62.371 26.5371H55.4428ZM96.7317 26.9841C94.6706 26.9841 92.7585 26.6489 90.9954 25.9784C89.2572 25.3079 87.7424 24.3643 86.4511 23.1475C85.1847 21.9307 84.1914 20.5029 83.4713 18.864C82.776 17.225 82.4283 15.4371 82.4283 13.5002C82.4283 11.5633 82.776 9.77536 83.4713 8.13644C84.1914 6.49751 85.1971 5.06966 86.4884 3.85288C87.7797 2.6361 89.2944 1.69248 91.0327 1.02201C92.7709 0.351538 94.6582 0.016304 96.6944 0.016304C98.7555 0.016304 100.643 0.351538 102.356 1.02201C104.094 1.69248 105.597 2.6361 106.863 3.85288C108.154 5.06966 109.16 6.49751 109.88 8.13644C110.6 9.75053 110.961 11.5385 110.961 13.5002C110.961 15.4371 110.6 17.2374 109.88 18.9012C109.16 20.5401 108.154 21.968 106.863 23.1848C105.597 24.3767 104.094 25.3079 102.356 25.9784C100.643 26.6489 98.7679 26.9841 96.7317 26.9841ZM96.6944 21.8438C97.8615 21.8438 98.9293 21.6452 99.8978 21.2478C100.891 20.8505 101.76 20.2794 102.505 19.5344C103.25 18.7895 103.821 17.9079 104.219 16.8898C104.641 15.8717 104.852 14.7418 104.852 13.5002C104.852 12.2586 104.641 11.1287 104.219 10.1106C103.821 9.09248 103.25 8.21093 102.505 7.46597C101.785 6.721 100.928 6.14986 99.935 5.75254C98.9417 5.35523 97.8615 5.15657 96.6944 5.15657C95.5273 5.15657 94.4471 5.35523 93.4538 5.75254C92.4854 6.14986 91.6286 6.721 90.8837 7.46597C90.1387 8.21093 89.5552 9.09248 89.133 10.1106C88.7357 11.1287 88.537 12.2586 88.537 13.5002C88.537 14.717 88.7357 15.8468 89.133 16.8898C89.5552 17.9079 90.1263 18.7895 90.8464 19.5344C91.5914 20.2794 92.4605 20.8505 93.4538 21.2478C94.4471 21.6452 95.5273 21.8438 96.6944 21.8438Z" fill="url(#paint0_linear_365_2025)"/>
<path d="M6.40641 43.9819H12.0839V45.3344H6.40641V43.9819ZM6.56368 49.7852H4.99097V38.7762H12.7601V40.1445H6.56368V49.7852ZM27.8702 49.911C26.4233 49.911 25.2857 49.4968 24.4574 48.6685C23.6291 47.8402 23.215 46.6293 23.215 45.0356V38.7762H24.7877V44.9727C24.7877 46.1994 25.055 47.0958 25.5897 47.662C26.135 48.2282 26.9003 48.5113 27.8859 48.5113C28.8819 48.5113 29.6473 48.2282 30.1821 47.662C30.7273 47.0958 30.9999 46.1994 30.9999 44.9727V38.7762H32.5254V45.0356C32.5254 46.6293 32.1112 47.8402 31.2829 48.6685C30.4651 49.4968 29.3275 49.911 27.8702 49.911ZM46.0714 49.7852V40.1445H42.2969V38.7762H51.4029V40.1445H47.6284V49.7852H46.0714ZM65.8123 49.911C64.3654 49.911 63.2279 49.4968 62.3996 48.6685C61.5713 47.8402 61.1571 46.6293 61.1571 45.0356V38.7762H62.7298V44.9727C62.7298 46.1994 62.9972 47.0958 63.5319 47.662C64.0771 48.2282 64.8425 48.5113 65.8281 48.5113C66.8241 48.5113 67.5895 48.2282 68.1242 47.662C68.6694 47.0958 68.942 46.1994 68.942 44.9727V38.7762H70.4676V45.0356C70.4676 46.6293 70.0534 47.8402 69.2251 48.6685C68.4073 49.4968 67.2697 49.911 65.8123 49.911ZM82.0272 49.7852V38.7762H86.3207C87.2853 38.7762 88.1083 38.9282 88.7898 39.2323C89.4713 39.5363 89.9956 39.9767 90.3625 40.5534C90.7295 41.13 90.913 41.8168 90.913 42.6136C90.913 43.4105 90.7295 44.0972 90.3625 44.6739C89.9956 45.24 89.4713 45.6751 88.7898 45.9792C88.1083 46.2833 87.2853 46.4353 86.3207 46.4353H82.8922L83.5999 45.7118V49.7852H82.0272ZM89.3875 49.7852L86.588 45.7905H88.2708L91.1017 49.7852H89.3875ZM83.5999 45.8691L82.8922 45.0985H86.2735C87.28 45.0985 88.0402 44.8836 88.5539 44.4537C89.0782 44.0133 89.3403 43.4 89.3403 42.6136C89.3403 41.8273 89.0782 41.2191 88.5539 40.7893C88.0402 40.3594 87.28 40.1445 86.2735 40.1445H82.8922L83.5999 39.3581V45.8691ZM103.22 43.5258H108.882V44.8626H103.22V43.5258ZM103.362 48.4169H109.779V49.7852H101.789V38.7762H109.558V40.1445H103.362V48.4169Z" fill="white"/>
<defs>
<linearGradient id="paint0_linear_365_2025" x1="86.159" y1="0.53711" x2="81.6982" y2="33.0111" gradientUnits="userSpaceOnUse">
<stop offset="0.204395" stop-color="#17C4FE"/>
<stop offset="0.477504" stop-color="#0FD2E4"/>
<stop offset="0.909169" stop-color="#1048D4"/>
</linearGradient>
</defs>
</svg>
