<svg width="87" height="23" viewBox="0 0 87 23" fill="none" xmlns="http://www.w3.org/2000/svg">
<path d="M-0.00999987 21.7695V0.76953H4.01L16.4 15.8895H14.45V0.76953H19.25V21.7695H15.26L2.84 6.64953H4.79V21.7695H-0.00999987ZM28.6885 9.22953H38.7985V13.0095H28.6885V9.22953ZM29.0485 17.8695H40.4785V21.7695H24.2185V0.76953H40.0885V4.66953H29.0485V17.8695ZM41.7404 21.7695L50.7704 9.31953V12.8595L42.1304 0.76953H47.6504L53.6204 9.19953L51.3104 9.22953L57.1904 0.76953H62.4704L53.8904 12.6495V9.16953L62.9804 21.7695H57.3704L51.1904 12.8595H53.4104L47.3204 21.7695H41.7404ZM74.9947 22.1295C73.3347 22.1295 71.7947 21.8595 70.3747 21.3195C68.9747 20.7795 67.7547 20.0195 66.7147 19.0395C65.6947 18.0595 64.8947 16.9095 64.3147 15.5895C63.7547 14.2695 63.4747 12.8295 63.4747 11.2695C63.4747 9.70953 63.7547 8.26953 64.3147 6.94953C64.8947 5.62953 65.7047 4.47953 66.7447 3.49953C67.7847 2.51953 69.0047 1.75953 70.4047 1.21953C71.8047 0.67953 73.3247 0.409531 74.9647 0.409531C76.6247 0.409531 78.1447 0.67953 79.5247 1.21953C80.9247 1.75953 82.1347 2.51953 83.1547 3.49953C84.1947 4.47953 85.0047 5.62953 85.5847 6.94953C86.1647 8.24953 86.4547 9.68953 86.4547 11.2695C86.4547 12.8295 86.1647 14.2795 85.5847 15.6195C85.0047 16.9395 84.1947 18.0895 83.1547 19.0695C82.1347 20.0295 80.9247 20.7795 79.5247 21.3195C78.1447 21.8595 76.6347 22.1295 74.9947 22.1295ZM74.9647 17.9895C75.9047 17.9895 76.7647 17.8295 77.5447 17.5095C78.3447 17.1895 79.0447 16.7295 79.6447 16.1295C80.2447 15.5295 80.7047 14.8195 81.0247 13.9995C81.3647 13.1795 81.5347 12.2695 81.5347 11.2695C81.5347 10.2695 81.3647 9.35953 81.0247 8.53953C80.7047 7.71953 80.2447 7.00953 79.6447 6.40953C79.0647 5.80953 78.3747 5.34953 77.5747 5.02953C76.7747 4.70953 75.9047 4.54953 74.9647 4.54953C74.0247 4.54953 73.1547 4.70953 72.3547 5.02953C71.5747 5.34953 70.8847 5.80953 70.2847 6.40953C69.6847 7.00953 69.2147 7.71953 68.8747 8.53953C68.5547 9.35953 68.3947 10.2695 68.3947 11.2695C68.3947 12.2495 68.5547 13.1595 68.8747 13.9995C69.2147 14.8195 69.6747 15.5295 70.2547 16.1295C70.8547 16.7295 71.5547 17.1895 72.3547 17.5095C73.1547 17.8295 74.0247 17.9895 74.9647 17.9895Z" fill="url(#paint0_linear_41_12532)"/>
<defs>
<linearGradient id="paint0_linear_41_12532" x1="66.4794" y1="-11.2305" x2="51.0111" y2="41.3198" gradientUnits="userSpaceOnUse">
<stop offset="0.204395" stop-color="#17C4FE"/>
<stop offset="0.477504" stop-color="#0FD2E4"/>
<stop offset="0.909169" stop-color="#1048D4"/>
</linearGradient>
</defs>
</svg>
