<svg width="186" height="51" viewBox="0 0 186 51" fill="none" xmlns="http://www.w3.org/2000/svg">
<path fill-rule="evenodd" clip-rule="evenodd" d="M14.8885 0L0.5 25.436L14.8885 50.7383H31.237L16.4921 25.436L21.6595 16.3931L41.6608 50.7383H44.5563L58.8557 25.436L44.5563 0H28.386L42.6854 25.436L37.9189 34.2561L17.9622 0H14.8885ZM36.1816 4.72152H41.6608L53.6438 25.4356L42.6854 44.0559L39.9235 39.4231L48.0309 25.4356L36.1816 4.72152ZM16.4921 7.03793L5.97918 25.4356L17.9621 46.0605H22.7286L11.2357 25.4356L19.1649 11.7153L16.4921 7.03793Z" fill="url(#paint0_linear_365_2021)"/>
<path d="M75.605 26.5371V0.463283H80.5963L95.9799 19.2364H93.5587V0.463283H99.5185V26.5371H94.5644L79.1436 7.76396H81.5648V26.5371H75.605ZM111.237 10.9673H123.79V15.6606H111.237V10.9673ZM111.684 21.6948H125.876V26.5371H105.687V0.463283H125.392V5.30556H111.684V21.6948ZM127.443 26.5371L138.655 11.0791V15.4744L127.927 0.463283H134.781L142.193 10.9301L139.325 10.9673L146.626 0.463283H153.181L142.528 15.2136V10.8928L153.815 26.5371H146.849L139.176 15.4744H141.932L134.371 26.5371H127.443ZM168.732 26.9841C166.671 26.9841 164.759 26.6489 162.995 25.9784C161.257 25.3079 159.742 24.3643 158.451 23.1475C157.185 21.9307 156.191 20.5029 155.471 18.864C154.776 17.225 154.428 15.4371 154.428 13.5002C154.428 11.5633 154.776 9.77536 155.471 8.13644C156.191 6.49751 157.197 5.06966 158.488 3.85288C159.78 2.6361 161.294 1.69248 163.033 1.02201C164.771 0.351538 166.658 0.016304 168.694 0.016304C170.755 0.016304 172.643 0.351538 174.356 1.02201C176.094 1.69248 177.597 2.6361 178.863 3.85288C180.154 5.06966 181.16 6.49751 181.88 8.13644C182.6 9.75053 182.961 11.5385 182.961 13.5002C182.961 15.4371 182.6 17.2374 181.88 18.9012C181.16 20.5401 180.154 21.968 178.863 23.1848C177.597 24.3767 176.094 25.3079 174.356 25.9784C172.643 26.6489 170.768 26.9841 168.732 26.9841ZM168.694 21.8438C169.862 21.8438 170.929 21.6452 171.898 21.2478C172.891 20.8505 173.76 20.2794 174.505 19.5344C175.25 18.7895 175.821 17.9079 176.219 16.8898C176.641 15.8717 176.852 14.7418 176.852 13.5002C176.852 12.2586 176.641 11.1287 176.219 10.1106C175.821 9.09248 175.25 8.21093 174.505 7.46597C173.785 6.721 172.928 6.14986 171.935 5.75254C170.942 5.35523 169.862 5.15657 168.694 5.15657C167.527 5.15657 166.447 5.35523 165.454 5.75254C164.485 6.14986 163.629 6.721 162.884 7.46597C162.139 8.21093 161.555 9.09248 161.133 10.1106C160.736 11.1287 160.537 12.2586 160.537 13.5002C160.537 14.717 160.736 15.8468 161.133 16.8898C161.555 17.9079 162.126 18.7895 162.846 19.5344C163.591 20.2794 164.461 20.8505 165.454 21.2478C166.447 21.6452 167.527 21.8438 168.694 21.8438Z" fill="url(#paint1_linear_365_2021)"/>
<path d="M75.8681 44.202H81.8286V44.9255H75.8681V44.202ZM75.9624 49.7852H75.1604V38.7762H82.5206V39.4997H75.9624V49.7852ZM98.6701 49.8638C97.3071 49.8638 96.2324 49.4654 95.4461 48.6685C94.6597 47.8717 94.2665 46.6869 94.2665 45.1142V38.7762H95.0686V45.0828C95.0686 46.4563 95.3832 47.4733 96.0122 48.1338C96.6413 48.7944 97.5325 49.1246 98.6859 49.1246C99.8287 49.1246 100.715 48.7944 101.344 48.1338C101.973 47.4733 102.287 46.4563 102.287 45.0828V38.7762H103.089V45.1142C103.089 46.6869 102.696 47.8717 101.91 48.6685C101.124 49.4654 100.044 49.8638 98.6701 49.8638ZM118.003 49.7852V39.4997H114.04V38.7762H122.769V39.4997H118.805V49.7852H118.003ZM138.131 49.8638C136.768 49.8638 135.693 49.4654 134.907 48.6685C134.121 47.8717 133.727 46.6869 133.727 45.1142V38.7762H134.529V45.0828C134.529 46.4563 134.844 47.4733 135.473 48.1338C136.102 48.7944 136.993 49.1246 138.147 49.1246C139.289 49.1246 140.175 48.7944 140.805 48.1338C141.434 47.4733 141.748 46.4563 141.748 45.0828V38.7762H142.55V45.1142C142.55 46.6869 142.157 47.8717 141.371 48.6685C140.584 49.4654 139.504 49.8638 138.131 49.8638ZM155.572 49.7852V38.7762H159.519C160.442 38.7762 161.234 38.923 161.894 39.2166C162.555 39.5101 163.063 39.9348 163.42 40.4905C163.776 41.0357 163.954 41.7014 163.954 42.4878C163.954 43.2532 163.776 43.9137 163.42 44.4694C163.063 45.0146 162.555 45.4392 161.894 45.7433C161.234 46.0369 160.442 46.1837 159.519 46.1837H156.012L156.374 45.8062V49.7852H155.572ZM163.215 49.7852L160.353 45.7905H161.265L164.127 49.7852H163.215ZM156.374 45.8534L156.012 45.4759H159.519C160.704 45.4759 161.6 45.2138 162.209 44.6896C162.827 44.1653 163.136 43.4314 163.136 42.4878C163.136 41.5337 162.827 40.7998 162.209 40.286C161.6 39.7618 160.704 39.4997 159.519 39.4997H156.012L156.374 39.1065V45.8534ZM176.878 43.8403H182.838V44.548H176.878V43.8403ZM176.972 49.0617H183.766V49.7852H176.17V38.7762H183.53V39.4997H176.972V49.0617Z" fill="white"/>
<defs>
<linearGradient id="paint0_linear_365_2021" x1="44.7345" y1="1.07363e-06" x2="18.4522" y2="50.7828" gradientUnits="userSpaceOnUse">
<stop offset="0.204395" stop-color="#17C4FE"/>
<stop offset="0.477504" stop-color="#0FD2E4"/>
<stop offset="0.909169" stop-color="#1048D4"/>
</linearGradient>
<linearGradient id="paint1_linear_365_2021" x1="158.159" y1="0.53711" x2="153.698" y2="33.0111" gradientUnits="userSpaceOnUse">
<stop offset="0.204395" stop-color="#17C4FE"/>
<stop offset="0.477504" stop-color="#0FD2E4"/>
<stop offset="0.909169" stop-color="#1048D4"/>
</linearGradient>
</defs>
</svg>
