<svg width="186" height="51" viewBox="0 0 186 51" fill="none" xmlns="http://www.w3.org/2000/svg">
<path fill-rule="evenodd" clip-rule="evenodd" d="M14.8885 0L0.5 25.436L14.8885 50.7383H31.237L16.4921 25.436L21.6595 16.3931L41.6608 50.7383H44.5563L58.8557 25.436L44.5563 0H28.386L42.6854 25.436L37.9189 34.2561L17.9622 0H14.8885ZM36.1816 4.72152H41.6608L53.6438 25.4356L42.6854 44.0559L39.9235 39.4231L48.0309 25.4356L36.1816 4.72152ZM16.4921 7.03793L5.97918 25.4356L17.9621 46.0605H22.7286L11.2357 25.4356L19.1649 11.7153L16.4921 7.03793Z" fill="url(#paint0_linear_367_3063)"/>
<path d="M75.605 26.5371V0.463283H80.5963L95.9799 19.2364H93.5587V0.463283H99.5185V26.5371H94.5644L79.1436 7.76396H81.5648V26.5371H75.605ZM111.237 10.9673H123.79V15.6606H111.237V10.9673ZM111.684 21.6948H125.876V26.5371H105.687V0.463283H125.392V5.30556H111.684V21.6948ZM127.443 26.5371L138.655 11.0791V15.4744L127.927 0.463283H134.781L142.193 10.9301L139.325 10.9673L146.626 0.463283H153.181L142.528 15.2136V10.8928L153.815 26.5371H146.849L139.176 15.4744H141.932L134.371 26.5371H127.443ZM168.732 26.9841C166.671 26.9841 164.759 26.6489 162.995 25.9784C161.257 25.3079 159.742 24.3643 158.451 23.1475C157.185 21.9307 156.191 20.5029 155.471 18.864C154.776 17.225 154.428 15.4371 154.428 13.5002C154.428 11.5633 154.776 9.77536 155.471 8.13644C156.191 6.49751 157.197 5.06966 158.488 3.85288C159.78 2.6361 161.294 1.69248 163.033 1.02201C164.771 0.351538 166.658 0.016304 168.694 0.016304C170.755 0.016304 172.643 0.351538 174.356 1.02201C176.094 1.69248 177.597 2.6361 178.863 3.85288C180.154 5.06966 181.16 6.49751 181.88 8.13644C182.6 9.75053 182.961 11.5385 182.961 13.5002C182.961 15.4371 182.6 17.2374 181.88 18.9012C181.16 20.5401 180.154 21.968 178.863 23.1848C177.597 24.3767 176.094 25.3079 174.356 25.9784C172.643 26.6489 170.768 26.9841 168.732 26.9841ZM168.694 21.8438C169.862 21.8438 170.929 21.6452 171.898 21.2478C172.891 20.8505 173.76 20.2794 174.505 19.5344C175.25 18.7895 175.821 17.9079 176.219 16.8898C176.641 15.8717 176.852 14.7418 176.852 13.5002C176.852 12.2586 176.641 11.1287 176.219 10.1106C175.821 9.09248 175.25 8.21093 174.505 7.46597C173.785 6.721 172.928 6.14986 171.935 5.75254C170.942 5.35523 169.862 5.15657 168.694 5.15657C167.527 5.15657 166.447 5.35523 165.454 5.75254C164.485 6.14986 163.629 6.721 162.884 7.46597C162.139 8.21093 161.555 9.09248 161.133 10.1106C160.736 11.1287 160.537 12.2586 160.537 13.5002C160.537 14.717 160.736 15.8468 161.133 16.8898C161.555 17.9079 162.126 18.7895 162.846 19.5344C163.591 20.2794 164.461 20.8505 165.454 21.2478C166.447 21.6452 167.527 21.8438 168.694 21.8438Z" fill="url(#paint1_linear_367_3063)"/>
<path d="M75.7459 44.3598H81.8952V44.6586H75.7459V44.3598ZM75.8245 49.7856H75.51V38.7767H82.6029V39.0755H75.8245V49.7856ZM98.8318 49.8328C97.5212 49.8328 96.4832 49.4449 95.7178 48.669C94.9629 47.8932 94.5854 46.7294 94.5854 45.1776V38.7767H94.9V45.1619C94.9 46.6297 95.2407 47.7254 95.9222 48.4488C96.6142 49.1723 97.5841 49.534 98.8318 49.534C100.079 49.534 101.044 49.1723 101.726 48.4488C102.418 47.7254 102.764 46.6297 102.764 45.1619V38.7767H103.078V45.1776C103.078 46.7294 102.695 47.8932 101.93 48.669C101.175 49.4449 100.142 49.8328 98.8318 49.8328ZM118.275 49.7856V39.0755H114.186V38.7767H122.679V39.0755H118.59V49.7856H118.275ZM138.031 49.8328C136.721 49.8328 135.683 49.4449 134.918 48.669C134.163 47.8932 133.785 46.7294 133.785 45.1776V38.7767H134.1V45.1619C134.1 46.6297 134.44 47.7254 135.122 48.4488C135.814 49.1723 136.784 49.534 138.031 49.534C139.279 49.534 140.244 49.1723 140.925 48.4488C141.617 47.7254 141.963 46.6297 141.963 45.1619V38.7767H142.278V45.1776C142.278 46.7294 141.895 47.8932 141.13 48.669C140.375 49.4449 139.342 49.8328 138.031 49.8328ZM155.645 49.7856V38.7767H159.372C160.274 38.7767 161.045 38.9235 161.684 39.2171C162.334 39.5001 162.832 39.909 163.178 40.4438C163.524 40.9785 163.697 41.6285 163.697 42.3939C163.697 43.1488 163.524 43.7989 163.178 44.3441C162.832 44.8788 162.334 45.2929 161.684 45.5865C161.045 45.8696 160.274 46.0111 159.372 46.0111H155.818L155.959 45.8696V49.7856H155.645ZM163.461 49.7856L160.583 45.791H160.976L163.854 49.7856H163.461ZM155.959 45.8381L155.818 45.7123H159.404C160.693 45.7123 161.679 45.424 162.36 44.8473C163.042 44.2602 163.383 43.4424 163.383 42.3939C163.383 41.335 163.042 40.5172 162.36 39.9405C161.679 39.3638 160.693 39.0755 159.404 39.0755H155.818L155.959 38.9497V45.8381ZM176.418 44.0453H182.567V44.3441H176.418V44.0453ZM176.496 49.4868H183.51V49.7856H176.182V38.7767H183.275V39.0755H176.496V49.4868Z" fill="black"/>
<defs>
<linearGradient id="paint0_linear_367_3063" x1="44.7345" y1="1.07363e-06" x2="18.4522" y2="50.7828" gradientUnits="userSpaceOnUse">
<stop offset="0.204395" stop-color="#17C4FE"/>
<stop offset="0.477504" stop-color="#0FD2E4"/>
<stop offset="0.909169" stop-color="#1048D4"/>
</linearGradient>
<linearGradient id="paint1_linear_367_3063" x1="158.159" y1="0.53711" x2="153.698" y2="33.0111" gradientUnits="userSpaceOnUse">
<stop offset="0.204395" stop-color="#17C4FE"/>
<stop offset="0.477504" stop-color="#0FD2E4"/>
<stop offset="0.909169" stop-color="#1048D4"/>
</linearGradient>
</defs>
</svg>
