<svg width="149" height="45" viewBox="0 0 149 45" fill="none" xmlns="http://www.w3.org/2000/svg">
<path fill-rule="evenodd" clip-rule="evenodd" d="M11.5885 2.06757L0 22.5538L11.5885 42.9324H24.7557L12.8802 22.5538L17.042 15.2706L33.1511 42.9324H35.4832L47 22.5538L35.4832 2.06757H22.4595L33.9763 22.5538L30.1374 29.6576L14.0641 2.06757H11.5885ZM28.7382 5.87064H33.1511L42.8023 22.5538L33.9763 37.5508L31.7519 33.8195L38.2817 22.5538L28.7382 5.87064ZM12.8802 7.73629L4.41298 22.5538L14.0641 39.1653H17.9031L8.64656 22.5538L15.0328 11.5035L12.8802 7.73629Z" fill="url(#paint0_linear_126_1114)"/>
<path d="M60.49 33V12H64.51L76.9 27.12H74.95V12H79.75V33H75.76L63.34 17.88H65.29V33H60.49ZM89.1885 20.46H99.2985V24.24H89.1885V20.46ZM89.5485 29.1H100.979V33H84.7185V12H100.589V15.9H89.5485V29.1ZM102.24 33L111.27 20.55V24.09L102.63 12H108.15L114.12 20.43L111.81 20.46L117.69 12H122.97L114.39 23.88V20.4L123.48 33H117.87L111.69 24.09H113.91L107.82 33H102.24ZM135.495 33.36C133.835 33.36 132.295 33.09 130.875 32.55C129.475 32.01 128.255 31.25 127.215 30.27C126.195 29.29 125.395 28.14 124.815 26.82C124.255 25.5 123.975 24.06 123.975 22.5C123.975 20.94 124.255 19.5 124.815 18.18C125.395 16.86 126.205 15.71 127.245 14.73C128.285 13.75 129.505 12.99 130.905 12.45C132.305 11.91 133.825 11.64 135.465 11.64C137.125 11.64 138.645 11.91 140.025 12.45C141.425 12.99 142.635 13.75 143.655 14.73C144.695 15.71 145.505 16.86 146.085 18.18C146.665 19.48 146.955 20.92 146.955 22.5C146.955 24.06 146.665 25.51 146.085 26.85C145.505 28.17 144.695 29.32 143.655 30.3C142.635 31.26 141.425 32.01 140.025 32.55C138.645 33.09 137.135 33.36 135.495 33.36ZM135.465 29.22C136.405 29.22 137.265 29.06 138.045 28.74C138.845 28.42 139.545 27.96 140.145 27.36C140.745 26.76 141.205 26.05 141.525 25.23C141.865 24.41 142.035 23.5 142.035 22.5C142.035 21.5 141.865 20.59 141.525 19.77C141.205 18.95 140.745 18.24 140.145 17.64C139.565 17.04 138.875 16.58 138.075 16.26C137.275 15.94 136.405 15.78 135.465 15.78C134.525 15.78 133.655 15.94 132.855 16.26C132.075 16.58 131.385 17.04 130.785 17.64C130.185 18.24 129.715 18.95 129.375 19.77C129.055 20.59 128.895 21.5 128.895 22.5C128.895 23.48 129.055 24.39 129.375 25.23C129.715 26.05 130.175 26.76 130.755 27.36C131.355 27.96 132.055 28.42 132.855 28.74C133.655 29.06 134.525 29.22 135.465 29.22Z" fill="url(#paint1_linear_126_1114)"/>
<defs>
<linearGradient id="paint0_linear_126_1114" x1="35.6267" y1="2.06757" x2="14.4588" y2="42.9683" gradientUnits="userSpaceOnUse">
<stop offset="0.204395" stop-color="#17C4FE"/>
<stop offset="0.477504" stop-color="#0FD2E4"/>
<stop offset="0.909169" stop-color="#1048D4"/>
</linearGradient>
<linearGradient id="paint1_linear_126_1114" x1="126.979" y1="9.52207e-07" x2="111.511" y2="52.5503" gradientUnits="userSpaceOnUse">
<stop offset="0.204395" stop-color="#17C4FE"/>
<stop offset="0.477504" stop-color="#0FD2E4"/>
<stop offset="0.909169" stop-color="#1048D4"/>
</linearGradient>
</defs>
</svg>
