<svg width="149" height="41" viewBox="0 0 149 41" fill="none" xmlns="http://www.w3.org/2000/svg">
<path fill-rule="evenodd" clip-rule="evenodd" d="M11.5885 0L0 20.4863L11.5885 40.8649H24.7557L12.8802 20.4863L17.042 13.2031L33.1511 40.8649H35.4832L47 20.4863L35.4832 0H22.4595L33.9763 20.4863L30.1374 27.5901L14.0641 0H11.5885ZM28.7382 3.80307H33.1511L42.8023 20.4863L33.9763 35.4832L31.7519 31.7519L38.2817 20.4863L28.7382 3.80307ZM12.8802 5.66872L4.41298 20.4863L14.0641 37.0977H17.9031L8.64656 20.4863L15.0328 9.4359L12.8802 5.66872Z" fill="url(#paint0_linear_376_196)"/>
<path d="M60.49 21.4326V0.432616H64.51L76.9 15.5526H74.95V0.432616H79.75V21.4326H75.76L63.34 6.31262H65.29V21.4326H60.49ZM89.1885 8.89262H99.2985V12.6726H89.1885V8.89262ZM89.5485 17.5326H100.979V21.4326H84.7185V0.432616H100.589V4.33262H89.5485V17.5326ZM102.24 21.4326L111.27 8.98262V12.5226L102.63 0.432616H108.15L114.12 8.86262L111.81 8.89262L117.69 0.432616H122.97L114.39 12.3126V8.83262L123.48 21.4326H117.87L111.69 12.5226H113.91L107.82 21.4326H102.24ZM135.495 21.7926C133.835 21.7926 132.295 21.5226 130.875 20.9826C129.475 20.4426 128.255 19.6826 127.215 18.7026C126.195 17.7226 125.395 16.5726 124.815 15.2526C124.255 13.9326 123.975 12.4926 123.975 10.9326C123.975 9.37262 124.255 7.93262 124.815 6.61262C125.395 5.29262 126.205 4.14262 127.245 3.16262C128.285 2.18262 129.505 1.42262 130.905 0.882615C132.305 0.342616 133.825 0.0726168 135.465 0.0726168C137.125 0.0726168 138.645 0.342616 140.025 0.882615C141.425 1.42262 142.635 2.18262 143.655 3.16262C144.695 4.14262 145.505 5.29262 146.085 6.61262C146.665 7.91262 146.955 9.35262 146.955 10.9326C146.955 12.4926 146.665 13.9426 146.085 15.2826C145.505 16.6026 144.695 17.7526 143.655 18.7326C142.635 19.6926 141.425 20.4426 140.025 20.9826C138.645 21.5226 137.135 21.7926 135.495 21.7926ZM135.465 17.6526C136.405 17.6526 137.265 17.4926 138.045 17.1726C138.845 16.8526 139.545 16.3926 140.145 15.7926C140.745 15.1926 141.205 14.4826 141.525 13.6626C141.865 12.8426 142.035 11.9326 142.035 10.9326C142.035 9.93262 141.865 9.02262 141.525 8.20262C141.205 7.38262 140.745 6.67262 140.145 6.07262C139.565 5.47262 138.875 5.01262 138.075 4.69262C137.275 4.37262 136.405 4.21262 135.465 4.21262C134.525 4.21262 133.655 4.37262 132.855 4.69262C132.075 5.01262 131.385 5.47262 130.785 6.07262C130.185 6.67262 129.715 7.38262 129.375 8.20262C129.055 9.02262 128.895 9.93262 128.895 10.9326C128.895 11.9126 129.055 12.8226 129.375 13.6626C129.715 14.4826 130.175 15.1926 130.755 15.7926C131.355 16.3926 132.055 16.8526 132.855 17.1726C133.655 17.4926 134.525 17.6526 135.465 17.6526Z" fill="url(#paint1_linear_376_196)"/>
<path d="M62.9678 35.556H67.2238V37.2026H62.9678V35.556ZM63.1198 40.4326H61.0678V31.5659H67.7685V33.2126H63.1198V40.4326ZM79.8103 40.5846C78.5521 40.5846 77.5683 40.2342 76.859 39.5333C76.1496 38.8324 75.795 37.8317 75.795 36.5313V31.5659H77.847V36.4553C77.847 37.2997 78.0201 37.9077 78.3663 38.2793C78.7125 38.6508 79.1981 38.8366 79.823 38.8366C80.4479 38.8366 80.9334 38.6508 81.2796 38.2793C81.6259 37.9077 81.799 37.2997 81.799 36.4553V31.5659H83.8256V36.5313C83.8256 37.8317 83.471 38.8324 82.7616 39.5333C82.0523 40.2342 81.0685 40.5846 79.8103 40.5846ZM94.255 40.4326V33.238H91.4176V31.5659H99.1443V33.238H96.307V40.4326H94.255ZM110.753 40.5846C109.494 40.5846 108.511 40.2342 107.801 39.5333C107.092 38.8324 106.737 37.8317 106.737 36.5313V31.5659H108.789V36.4553C108.789 37.2997 108.962 37.9077 109.309 38.2793C109.655 38.6508 110.14 38.8366 110.765 38.8366C111.39 38.8366 111.876 38.6508 112.222 38.2793C112.568 37.9077 112.741 37.2997 112.741 36.4553V31.5659H114.768V36.5313C114.768 37.8317 114.413 38.8324 113.704 39.5333C112.995 40.2342 112.011 40.5846 110.753 40.5846ZM123.509 40.4326V31.5659H127.347C128.141 31.5659 128.825 31.6968 129.399 31.9586C129.973 32.2119 130.417 32.5793 130.729 33.0606C131.041 33.5419 131.198 34.1162 131.198 34.7833C131.198 35.442 131.041 36.012 130.729 36.4933C130.417 36.9662 129.973 37.3293 129.399 37.5826C128.825 37.836 128.141 37.9626 127.347 37.9626H124.649L125.561 37.0633V40.4326H123.509ZM129.146 40.4326L126.929 37.2153H129.12L131.362 40.4326H129.146ZM125.561 37.2913L124.649 36.3286H127.233C127.866 36.3286 128.339 36.1935 128.652 35.9233C128.964 35.6446 129.12 35.2646 129.12 34.7833C129.12 34.2935 128.964 33.9135 128.652 33.6433C128.339 33.3731 127.866 33.238 127.233 33.238H124.649L125.561 32.2626V37.2913ZM141.424 35.138H145.693V36.734H141.424V35.138ZM141.576 38.786H146.402V40.4326H139.537V31.5659H146.237V33.2126H141.576V38.786Z" fill="white"/>
<defs>
<linearGradient id="paint0_linear_376_196" x1="35.6267" y1="8.64707e-07" x2="14.4588" y2="40.9008" gradientUnits="userSpaceOnUse">
<stop offset="0.204395" stop-color="#17C4FE"/>
<stop offset="0.477504" stop-color="#0FD2E4"/>
<stop offset="0.909169" stop-color="#1048D4"/>
</linearGradient>
<linearGradient id="paint1_linear_376_196" x1="126.979" y1="0.432618" x2="123.387" y2="26.5874" gradientUnits="userSpaceOnUse">
<stop offset="0.204395" stop-color="#17C4FE"/>
<stop offset="0.477504" stop-color="#0FD2E4"/>
<stop offset="0.909169" stop-color="#1048D4"/>
</linearGradient>
</defs>
</svg>
